<svg width="25" height="24" viewBox="0 0 25 24" fill="none" xmlns="http://www.w3.org/2000/svg">
<path fill-rule="evenodd" clip-rule="evenodd" d="M17.3886 21.5H9.04079C5.97443 21.5 3.62203 20.3925 4.29022 15.9348L5.06825 9.89363C5.48015 7.66937 6.89892 6.81812 8.14377 6.81812H18.3223C19.5854 6.81812 20.9218 7.73345 21.3978 9.89363L22.1758 15.9348C22.7433 19.8891 20.455 21.5 17.3886 21.5Z" stroke="#9E9E9E" stroke-width="1.5" stroke-linecap="round" stroke-linejoin="round"/>
<path d="M17.526 6.59848C17.526 4.21241 15.5917 2.27812 13.2056 2.27812V2.27812C12.0566 2.27325 10.953 2.72628 10.1388 3.53703C9.32463 4.34778 8.86693 5.44947 8.86694 6.59848V6.59848" stroke="#9E9E9E" stroke-width="1.5" stroke-linecap="round" stroke-linejoin="round"/>
<path d="M16.1712 11.102H16.1255" stroke="#9E9E9E" stroke-width="1.5" stroke-linecap="round" stroke-linejoin="round"/>
<path d="M10.3407 11.102H10.2949" stroke="#9E9E9E" stroke-width="1.5" stroke-linecap="round" stroke-linejoin="round"/>
</svg>
