<svg width="20" height="28" viewBox="0 0 20 28" fill="none" xmlns="http://www.w3.org/2000/svg">
<path fill-rule="evenodd" clip-rule="evenodd" d="M19.2282 4.9907C19.6494 4.9907 20 5.42137 20 5.96936V6.47602C20 7.01068 19.6494 7.45468 19.2282 7.45468H1.28565C0.863435 7.45468 0.512817 7.01068 0.512817 6.47602V5.96936C0.512817 5.42137 0.863435 4.9907 1.28565 4.9907H4.44226C5.08348 4.9907 5.64152 4.42938 5.78577 3.63738L5.95108 2.72806C6.20798 1.48941 7.05347 0.666748 8.02109 0.666748H12.4917C13.4488 0.666748 14.3038 1.48941 14.5512 2.66273L14.7281 3.63605C14.8713 4.42938 15.4293 4.9907 16.0716 4.9907H19.2282ZM17.6245 23.5121C17.9541 19.7295 18.5311 10.7429 18.5311 10.6522C18.5521 10.3776 18.4795 10.1176 18.3352 9.90825C18.1805 9.71226 17.9846 9.59626 17.7688 9.59626H2.75224C2.53534 9.59626 2.32897 9.71226 2.18578 9.90825C2.04048 10.1176 1.96888 10.3776 1.97941 10.6522C1.98134 10.6689 2.00205 10.9855 2.03666 11.5147C2.19043 13.8657 2.6187 20.4136 2.89544 23.5121C3.09128 25.7948 4.30738 27.2294 6.0689 27.2814C7.4282 27.3201 8.82856 27.3334 10.2605 27.3334C11.6093 27.3334 12.9791 27.3201 14.3805 27.2814C16.2031 27.2427 17.4182 25.8334 17.6245 23.5121Z" fill="#F75555"/>
</svg>
