<svg width="28" height="28" viewBox="0 0 28 28" fill="none" xmlns="http://www.w3.org/2000/svg">
<path fill-rule="evenodd" clip-rule="evenodd" d="M6.40678 6.46853C6.40678 5.73137 7.00436 5.13379 7.74153 5.13379H19.1017H19.1907C19.2095 5.13379 19.2282 5.13418 19.2468 5.13495C24.0943 5.21246 28 9.16616 28 14.0321C28 18.8981 24.0942 22.8518 19.2467 22.9292C19.2281 22.93 19.2094 22.9304 19.1907 22.9304H19.11L19.1017 22.9304L19.0934 22.9304H7.74152C7.00436 22.9304 6.40678 22.3328 6.40678 21.5956C6.40678 20.8585 7.00436 20.2609 7.74153 20.2609H10.4424C11.3002 20.2609 11.7886 19.1748 11.364 18.4294C11.18 18.1062 10.8436 17.888 10.4717 17.888H7.02966C6.2925 17.888 5.69492 17.2904 5.69492 16.5533C5.69492 15.8161 6.2925 15.2185 7.02966 15.2185H9.0919C9.72197 15.2185 10.2034 14.6622 10.2034 14.0321C10.2034 13.402 9.72197 12.8457 9.0919 12.8457H5.19068C4.45352 12.8457 3.85593 12.2481 3.85593 11.5109C3.85593 10.7737 4.45352 10.1762 5.19068 10.1762H10.4717C10.8436 10.1762 11.18 9.95794 11.364 9.63482C11.7886 8.88943 11.3002 7.80328 10.4424 7.80328H7.74152C7.00436 7.80328 6.40678 7.20569 6.40678 6.46853ZM2.66949 11.5109C2.66949 12.2481 2.07191 12.8457 1.33475 12.8457C0.597586 12.8457 0 12.2481 0 11.5109C0 10.7737 0.597586 10.1762 1.33475 10.1762C2.07191 10.1762 2.66949 10.7737 2.66949 11.5109ZM3.88559 22.9304C4.62275 22.9304 5.22034 22.3328 5.22034 21.5956C5.22034 20.8585 4.62275 20.2609 3.88559 20.2609C3.14843 20.2609 2.55085 20.8585 2.55085 21.5956C2.55085 22.3328 3.14843 22.9304 3.88559 22.9304Z" fill="url(#paint0_linear_886_5205)"/>
<circle cx="19.1018" cy="14.0317" r="7.11864" fill="white"/>
<g clip-path="url(#clip0_886_5205)">
<path d="M19.1313 18.9042C21.8388 18.9042 24.0336 16.7094 24.0336 14.0019C24.0336 11.2944 21.8388 9.09961 19.1313 9.09961C16.4238 9.09961 14.229 11.2944 14.229 14.0019C14.229 16.7094 16.4238 18.9042 19.1313 18.9042Z" fill="#292F33"/>
<path d="M23.0532 14.0019C23.0532 16.1679 21.2973 17.9238 19.1313 17.9238C16.9654 17.9238 15.2095 16.1679 15.2095 14.0019C15.2095 11.836 16.9654 10.0801 19.1313 10.0801C21.2973 10.0801 23.0532 11.836 23.0532 14.0019Z" fill="#FFC02D"/>
<path d="M19.5482 11.8873L18.816 11.1551C18.8708 11.0914 18.8986 11.0088 18.8936 10.9249C18.8885 10.841 18.8509 10.7623 18.7888 10.7056C18.7268 10.6489 18.645 10.6187 18.561 10.6212C18.477 10.6238 18.3972 10.659 18.3387 10.7194C18.2609 10.7973 18.2314 10.9048 18.249 11.0052C18.1811 10.9931 18.1111 11.003 18.0492 11.0335C17.9873 11.0639 17.9367 11.1134 17.9048 11.1745C17.873 11.2357 17.8614 11.3055 17.8719 11.3737C17.8825 11.4419 17.9144 11.5049 17.9633 11.5537C18.0829 11.6733 18.2718 11.6785 18.399 11.5721L19.1312 12.304L19.5482 11.8873Z" fill="#FFE8B6"/>
<path d="M21.9195 14.6761C22.128 14.4676 22.6551 13.5728 21.9256 12.8432C21.4172 12.3348 21.0074 12.3639 20.2452 12.1751C19.9326 12.0707 19.5249 11.6949 19.4208 11.5908C19.3164 11.6949 19.353 12.0761 19.353 12.0761C19.353 12.0761 18.8988 12.1131 18.7944 12.2172C18.8985 12.3213 19.383 12.7795 19.4678 12.9943C19.6956 13.7176 19.6696 14.0855 20.1783 14.5936C21.012 15.4273 21.7113 14.8846 21.9195 14.6761Z" fill="#C1694F"/>
<path d="M16.632 13.5698C16.632 14.1273 17.5257 14.5791 16.9685 14.5791C16.836 14.5791 16.7047 14.553 16.5823 14.5023C16.4598 14.4516 16.3486 14.3772 16.2548 14.2835C16.1611 14.1898 16.0868 14.0785 16.0361 13.9561C15.9853 13.8336 15.9592 13.7024 15.9592 13.5698C15.9592 13.4373 15.9853 13.3061 16.0361 13.1836C16.0868 13.0611 16.1611 12.9499 16.2548 12.8562C16.3486 12.7624 16.4598 12.6881 16.5823 12.6374C16.7047 12.5867 16.836 12.5605 16.9685 12.5605C17.5259 12.5605 16.632 13.0124 16.632 13.5698ZM19.1365 16.3065C19.5976 16.5288 20.3292 15.97 20.1066 16.4314C19.9996 16.6529 19.809 16.8229 19.5766 16.9039C19.3443 16.9849 19.0893 16.9703 18.8677 16.8633C18.6462 16.7563 18.4762 16.5657 18.3952 16.3334C18.3142 16.101 18.3288 15.8461 18.4358 15.6245C18.6584 15.1631 18.6754 16.0839 19.1365 16.3065Z" fill="#77B255"/>
<path d="M18.2662 14.2902C18.5847 14.2902 18.8429 14.032 18.8429 13.7135C18.8429 13.3949 18.5847 13.1367 18.2662 13.1367C17.9477 13.1367 17.6895 13.3949 17.6895 13.7135C17.6895 14.032 17.9477 14.2902 18.2662 14.2902Z" fill="#F4900C"/>
<path d="M20.8616 16.0211C21.0209 16.0211 21.15 15.892 21.15 15.7327C21.15 15.5734 21.0209 15.4443 20.8616 15.4443C20.7024 15.4443 20.5732 15.5734 20.5732 15.7327C20.5732 15.892 20.7024 16.0211 20.8616 16.0211Z" fill="#F4900C"/>
<path d="M17.1128 15.732C17.2721 15.732 17.4012 15.6029 17.4012 15.4436C17.4012 15.2844 17.2721 15.1553 17.1128 15.1553C16.9536 15.1553 16.8245 15.2844 16.8245 15.4436C16.8245 15.6029 16.9536 15.732 17.1128 15.732Z" fill="#F4900C"/>
</g>
<defs>
<linearGradient id="paint0_linear_886_5205" x1="28" y1="22.9304" x2="-1.89696" y2="9.2922" gradientUnits="userSpaceOnUse">
<stop stop-color="#1BAC4B"/>
<stop offset="1" stop-color="#46D375"/>
</linearGradient>
<clipPath id="clip0_886_5205">
<rect width="10.3814" height="10.3814" fill="white" transform="translate(13.9407 8.81152)"/>
</clipPath>
</defs>
</svg>
