<svg width="18" height="14" viewBox="0 0 18 14" fill="none" xmlns="http://www.w3.org/2000/svg">
<path d="M17.0625 9.625H16.625V6.67188C16.625 6.34375 16.4609 5.98828 16.2148 5.74219L13.5078 3.03516C13.2617 2.78906 12.9062 2.625 12.5781 2.625H11.375V1.3125C11.375 0.601562 10.7734 0 10.0625 0H1.3125C0.574219 0 0 0.601562 0 1.3125V10.0625C0 10.8008 0.574219 11.375 1.3125 11.375H1.75C1.75 12.8242 2.92578 14 4.375 14C5.82422 14 7 12.8242 7 11.375H10.5C10.5 12.8242 11.6758 14 13.125 14C14.5742 14 15.75 12.8242 15.75 11.375H17.0625C17.2812 11.375 17.5 11.1836 17.5 10.9375V10.0625C17.5 9.84375 17.2812 9.625 17.0625 9.625ZM4.375 12.6875C3.63672 12.6875 3.0625 12.1133 3.0625 11.375C3.0625 10.6641 3.63672 10.0625 4.375 10.0625C5.08594 10.0625 5.6875 10.6641 5.6875 11.375C5.6875 12.1133 5.08594 12.6875 4.375 12.6875ZM13.125 12.6875C12.3867 12.6875 11.8125 12.1133 11.8125 11.375C11.8125 10.6641 12.3867 10.0625 13.125 10.0625C13.8359 10.0625 14.4375 10.6641 14.4375 11.375C14.4375 12.1133 13.8359 12.6875 13.125 12.6875ZM15.3125 7H11.375V3.9375H12.5781L15.3125 6.67188V7Z" fill="#1BAC4B"/>
</svg>
