<svg width="28" height="28" viewBox="0 0 28 28" fill="none" xmlns="http://www.w3.org/2000/svg">
<path d="M23.3333 14.32C23.3333 14.763 23.0042 15.1291 22.5771 15.187L22.4583 15.195L4.95834 15.195C4.47509 15.195 4.08334 14.8033 4.08334 14.32C4.08334 13.877 4.41252 13.5109 4.83961 13.453L4.95834 13.445L22.4583 13.445C22.9416 13.445 23.3333 13.8368 23.3333 14.32Z" fill="#212121"/>
<path d="M12.6338 20.7284C12.9763 21.0694 12.9775 21.6234 12.6365 21.9659C12.3265 22.2772 11.8405 22.3065 11.4974 22.053L11.3991 21.9685L4.34073 14.9405C4.02849 14.6296 4.00008 14.1418 4.25553 13.7988L4.34068 13.7005L11.399 6.67132C11.7414 6.33032 12.2954 6.33147 12.6364 6.67388C12.9464 6.98517 12.9737 7.47134 12.7188 7.81336L12.6339 7.91132L6.19851 14.3208L12.6338 20.7284Z" fill="#212121"/>
</svg>
