<svg width="52" height="52" viewBox="0 0 52 52" fill="none" xmlns="http://www.w3.org/2000/svg">
<rect width="52" height="52" rx="26" fill="#1BAC4B" fill-opacity="0.08"/>
<rect x="8" y="8" width="36" height="36" rx="18" fill="url(#paint0_linear_1588_3714)"/>
<path d="M34.3332 25.9998C34.3332 30.6032 30.6023 34.3332 25.9998 34.3332C21.3973 34.3332 17.6665 30.6032 17.6665 25.9998C17.6665 21.3982 21.3973 17.6665 25.9998 17.6665C30.6023 17.6665 34.3332 21.3982 34.3332 25.9998Z" fill="white"/>
<path d="M28.9779 29.1785C28.8688 29.1785 28.7588 29.1502 28.6579 29.091L25.3863 27.1393C25.1979 27.026 25.0821 26.8218 25.0821 26.6018V22.396C25.0821 22.051 25.3621 21.771 25.7071 21.771C26.0521 21.771 26.3321 22.051 26.3321 22.396V26.2468L29.2988 28.016C29.5946 28.1935 29.6921 28.5768 29.5154 28.8735C29.3979 29.0693 29.1904 29.1785 28.9779 29.1785Z" fill="#31C061"/>
<defs>
<linearGradient id="paint0_linear_1588_3714" x1="44" y1="44" x2="1.16323" y2="31.5799" gradientUnits="userSpaceOnUse">
<stop stop-color="#1BAC4B"/>
<stop offset="1" stop-color="#46D375"/>
</linearGradient>
</defs>
</svg>
