<svg width="21" height="21" viewBox="0 0 21 21" fill="none" xmlns="http://www.w3.org/2000/svg">
<path d="M17.1667 2.16699H8.83335C8.39133 2.16699 7.9674 2.34259 7.65484 2.65515C7.34228 2.96771 7.16669 3.39163 7.16669 3.83366V5.50033H13.8334C14.2754 5.50033 14.6993 5.67592 15.0119 5.98848C15.3244 6.30104 15.5 6.72496 15.5 7.16699V13.8337H17.1667C17.6087 13.8337 18.0326 13.6581 18.3452 13.3455C18.6578 13.0329 18.8334 12.609 18.8334 12.167V3.83366C18.8334 3.39163 18.6578 2.96771 18.3452 2.65515C18.0326 2.34259 17.6087 2.16699 17.1667 2.16699Z" fill="#1BAC4B"/>
<path d="M3.83335 18.8337H12.1667C13.0859 18.8337 13.8334 18.0862 13.8334 17.167V8.83366C13.8334 7.91449 13.0859 7.16699 12.1667 7.16699H3.83335C2.91419 7.16699 2.16669 7.91449 2.16669 8.83366V17.167C2.16669 18.0862 2.91419 18.8337 3.83335 18.8337ZM5.50002 10.5003H10.5V12.167H5.50002V10.5003ZM5.50002 13.8337H10.5V15.5003H5.50002V13.8337Z" fill="#1BAC4B"/>
</svg>
