<svg width="52" height="52" viewBox="0 0 52 52" fill="none" xmlns="http://www.w3.org/2000/svg">
<rect width="52" height="52" rx="26" fill="#1BAC4B" fill-opacity="0.08"/>
<rect x="8" y="8" width="36" height="36" rx="18" fill="url(#paint0_linear_1055_1837)"/>
<path fill-rule="evenodd" clip-rule="evenodd" d="M18.9166 24.598C18.9166 20.7647 22.1199 17.6665 25.9945 17.6665C29.8801 17.6665 33.0833 20.7647 33.0833 24.598C33.0833 26.5296 32.3808 28.3229 31.2245 29.8428C29.949 31.5194 28.3768 32.9802 26.6071 34.1269C26.2021 34.3919 25.8365 34.4119 25.392 34.1269C23.6122 32.9802 22.04 31.5194 20.7754 29.8428C19.6183 28.3229 18.9166 26.5296 18.9166 24.598ZM23.6618 24.8138C23.6618 26.0979 24.7097 27.1079 25.9945 27.1079C27.2802 27.1079 28.3381 26.0979 28.3381 24.8138C28.3381 23.5397 27.2802 22.4805 25.9945 22.4805C24.7097 22.4805 23.6618 23.5397 23.6618 24.8138Z" fill="white"/>
<defs>
<linearGradient id="paint0_linear_1055_1837" x1="44" y1="44" x2="1.16323" y2="31.5799" gradientUnits="userSpaceOnUse">
<stop stop-color="#1BAC4B"/>
<stop offset="1" stop-color="#46D375"/>
</linearGradient>
</defs>
</svg>
