<svg width="24" height="24" viewBox="0 0 24 24" fill="none" xmlns="http://www.w3.org/2000/svg">
<mask id="mask0_1153_2248" style="mask-type:luminance" maskUnits="userSpaceOnUse" x="0" y="0" width="24" height="24">
<path fill-rule="evenodd" clip-rule="evenodd" d="M0.333496 0.333984H23.67V23.6685H0.333496V0.333984Z" fill="white"/>
</mask>
<g mask="url(#mask0_1153_2248)">
<path fill-rule="evenodd" clip-rule="evenodd" d="M10.769 21.4219C11.4573 22.0939 12.5657 22.0858 13.2493 21.3986L14.0917 20.5586C14.745 19.9064 15.648 19.5343 16.5685 19.5343H17.7702C18.7432 19.5343 19.5342 18.7433 19.5342 17.7714V16.5709C19.5342 15.6364 19.8958 14.7579 20.5562 14.0964L21.3962 13.2553C21.738 12.9123 21.9212 12.4678 21.92 11.9964C21.9188 11.5263 21.7333 11.0841 21.3985 10.7504L20.5573 9.9081C19.8958 9.24193 19.5342 8.3646 19.5342 7.4301V6.23194C19.5342 5.25893 18.7432 4.46794 17.7702 4.46794H16.5708C15.6363 4.46794 14.7578 4.1051 14.0963 3.44827L13.254 2.60477C12.5528 1.9106 11.434 1.9141 10.7492 2.6036L9.91034 3.44477C9.24067 4.10627 8.36217 4.46794 7.43117 4.46794H6.23067C5.25884 4.4691 4.46784 5.2601 4.46784 6.23194V7.42777C4.46784 8.36227 4.10501 9.24077 3.44701 9.90343L2.61867 10.7329C2.61051 10.7423 2.60234 10.7493 2.59417 10.7574C1.90934 11.4469 1.91284 12.5658 2.60234 13.2506L3.44467 14.0929C4.10501 14.7556 4.46784 15.6341 4.46784 16.5686V17.7714C4.46784 18.7433 5.25767 19.5343 6.23067 19.5343H7.42884C8.3645 19.5354 9.243 19.8983 9.9045 20.5574L10.7457 21.3963C10.7527 21.4044 10.7608 21.4126 10.769 21.4219ZM11.9987 23.6689C11.1038 23.6689 10.209 23.3306 9.52417 22.6516C9.51484 22.6423 9.50551 22.6329 9.49617 22.6224L8.66784 21.7953C8.33767 21.4674 7.89667 21.2854 7.42767 21.2843H6.23067C4.29284 21.2843 2.71784 19.7081 2.71784 17.7714V16.5686C2.71784 16.0996 2.53467 15.6598 2.20567 15.3284L1.36684 14.4908C0.00417197 13.1351 -0.0121613 10.9278 1.32601 9.5511C1.33651 9.5406 1.34701 9.5301 1.35751 9.5196L2.20684 8.66794C2.53467 8.33777 2.71784 7.8956 2.71784 7.42777V6.23194C2.71784 4.29527 4.29284 2.7191 6.22951 2.71794H7.43117C7.89901 2.71794 8.34001 2.53477 8.67484 2.2046L9.50901 1.3681C10.8728 -0.0050647 13.1023 -0.0120647 14.4778 1.35527L15.3307 2.2081C15.6608 2.53594 16.1018 2.71794 16.5708 2.71794H17.7702C19.708 2.71794 21.2842 4.2941 21.2842 6.23194V7.4301C21.2842 7.89793 21.4662 8.3401 21.7963 8.6726L22.634 9.51143C23.2978 10.1706 23.6665 11.0514 23.67 11.9906C23.6735 12.9298 23.3107 13.8129 22.6492 14.4791L21.794 15.3319C21.4662 15.6621 21.2842 16.1019 21.2842 16.5709V17.7714C21.2842 19.7081 19.708 21.2843 17.7713 21.2843H16.5685C16.1065 21.2843 15.655 21.4709 15.3272 21.7964L14.4895 22.6341C13.8047 23.3236 12.9017 23.6689 11.9987 23.6689Z" fill="#212121"/>
</g>
<path fill-rule="evenodd" clip-rule="evenodd" d="M9.00191 15.8755C8.77791 15.8755 8.55391 15.7903 8.38357 15.6188C8.04174 15.277 8.04174 14.724 8.38357 14.3821L14.3802 8.3843C14.7221 8.04247 15.2762 8.04247 15.6181 8.3843C15.9599 8.72614 15.9599 9.2803 15.6181 9.62214L9.62024 15.6188C9.44991 15.7903 9.22591 15.8755 9.00191 15.8755Z" fill="#212121"/>
<path fill-rule="evenodd" clip-rule="evenodd" d="M14.9208 16.0824C14.2756 16.0824 13.7483 15.5609 13.7483 14.9157C13.7483 14.2705 14.2651 13.749 14.9103 13.749H14.9208C15.566 13.749 16.0875 14.2705 16.0875 14.9157C16.0875 15.5609 15.566 16.0824 14.9208 16.0824Z" fill="#212121"/>
<path fill-rule="evenodd" clip-rule="evenodd" d="M9.08729 10.2493C8.44213 10.2493 7.91479 9.72785 7.91479 9.08268C7.91479 8.43752 8.43163 7.91602 9.07679 7.91602H9.08729C9.73246 7.91602 10.254 8.43752 10.254 9.08268C10.254 9.72785 9.73246 10.2493 9.08729 10.2493Z" fill="#212121"/>
</svg>
