<svg width="72" height="72" viewBox="0 0 72 72" fill="none" xmlns="http://www.w3.org/2000/svg">
<rect width="72" height="72" rx="36" fill="url(#paint0_linear_83_17272)"/>
<path fill-rule="evenodd" clip-rule="evenodd" d="M22.6667 36.0204C22.6667 28.9965 28.28 22.667 36.0267 22.667C43.6 22.667 49.3334 28.8763 49.3334 35.9803C49.3334 44.2193 42.6134 49.3337 36 49.3337C33.8134 49.3337 31.3867 48.7461 29.44 47.5977C28.76 47.1838 28.1867 46.8766 27.4534 47.117L24.76 47.9182C24.08 48.1319 23.4667 47.5977 23.6667 46.8766L24.56 43.8855C24.7067 43.4715 24.68 43.0309 24.4667 42.6837C23.32 40.5739 22.6667 38.2637 22.6667 36.0204ZM34.2667 36.0204C34.2667 36.9684 35.0267 37.7296 35.9734 37.7429C36.92 37.7429 37.68 36.9684 37.68 36.0337C37.68 35.0856 36.92 34.3245 35.9734 34.3245C35.04 34.3111 34.2667 35.0856 34.2667 36.0204ZM40.4134 36.0337C40.4134 36.9684 41.1734 37.7429 42.12 37.7429C43.0667 37.7429 43.8267 36.9684 43.8267 36.0337C43.8267 35.0856 43.0667 34.3245 42.12 34.3245C41.1734 34.3245 40.4134 35.0856 40.4134 36.0337ZM29.8267 37.7429C28.8934 37.7429 28.12 36.9684 28.12 36.0337C28.12 35.0856 28.88 34.3245 29.8267 34.3245C30.7734 34.3245 31.5334 35.0856 31.5334 36.0337C31.5334 36.9684 30.7734 37.7296 29.8267 37.7429Z" fill="white"/>
<defs>
<linearGradient id="paint0_linear_83_17272" x1="72" y1="72" x2="-13.6735" y2="47.1597" gradientUnits="userSpaceOnUse">
<stop stop-color="#1BAC4B"/>
<stop offset="1" stop-color="#46D375"/>
</linearGradient>
</defs>
</svg>
