<svg width="56" height="56" viewBox="0 0 56 56" fill="none" xmlns="http://www.w3.org/2000/svg">
<rect width="56" height="56" rx="28" fill="url(#paint0_linear_83_17241)"/>
<path d="M33.9185 30.32C33.6595 30.571 33.5405 30.934 33.5995 31.29L34.4885 36.21C34.5635 36.627 34.3875 37.049 34.0385 37.29C33.6965 37.54 33.2415 37.57 32.8685 37.37L28.4395 35.06C28.2855 34.978 28.1145 34.934 27.9395 34.929H27.6685C27.5745 34.943 27.4825 34.973 27.3985 35.019L22.9685 37.34C22.7495 37.45 22.5015 37.489 22.2585 37.45C21.6665 37.338 21.2715 36.774 21.3685 36.179L22.2585 31.259C22.3175 30.9 22.1985 30.535 21.9395 30.28L18.3285 26.78C18.0265 26.487 17.9215 26.047 18.0595 25.65C18.1935 25.254 18.5355 24.965 18.9485 24.9L23.9185 24.179C24.2965 24.14 24.6285 23.91 24.7985 23.57L26.9885 19.08C27.0405 18.98 27.1075 18.888 27.1885 18.81L27.2785 18.74C27.3255 18.688 27.3795 18.645 27.4395 18.61L27.5485 18.57L27.7185 18.5H28.1395C28.5155 18.539 28.8465 18.764 29.0195 19.1L31.2385 23.57C31.3985 23.897 31.7095 24.124 32.0685 24.179L37.0385 24.9C37.4585 24.96 37.8095 25.25 37.9485 25.65C38.0795 26.051 37.9665 26.491 37.6585 26.78L33.9185 30.32Z" fill="white"/>
<defs>
<linearGradient id="paint0_linear_83_17241" x1="56" y1="56" x2="-10.635" y2="36.6798" gradientUnits="userSpaceOnUse">
<stop stop-color="#1BAC4B"/>
<stop offset="1" stop-color="#46D375"/>
</linearGradient>
</defs>
</svg>
