<svg width="40" height="40" viewBox="0 0 40 40" fill="none" xmlns="http://www.w3.org/2000/svg">
<path fill-rule="evenodd" clip-rule="evenodd" d="M27.7754 3.35054C30.1729 3.20069 32.5372 4.03317 34.3187 5.66481C35.9503 7.4463 36.7828 9.81052 36.6496 12.2247V27.7753C36.7995 30.1894 35.9503 32.5537 34.3353 34.3351C32.5538 35.9668 30.1729 36.7993 27.7754 36.6494H12.2247C9.81051 36.7993 7.44627 35.9668 5.66477 34.3351C4.03311 32.5537 3.20063 30.1894 3.35048 27.7753V12.2247C3.20063 9.81052 4.03311 7.4463 5.66477 5.66481C7.44627 4.03317 9.81051 3.20069 12.2247 3.35054H27.7754ZM18.3016 28.0749L29.5068 16.8366C30.5224 15.8043 30.5224 14.1393 29.5068 13.1237L27.3423 10.9593C26.3101 9.92704 24.6451 9.92704 23.6128 10.9593L22.4973 12.0915C22.3308 12.258 22.3308 12.541 22.4973 12.7075C22.4973 12.7075 25.1446 15.3381 25.1945 15.4047C25.3777 15.6045 25.4942 15.8709 25.4942 16.1706C25.4942 16.77 25.0114 17.2694 24.3954 17.2694C24.1123 17.2694 23.8459 17.1529 23.6628 16.9698L20.8823 14.2059C20.7491 14.0727 20.516 14.0727 20.3828 14.2059L12.441 22.1477C11.8915 22.6972 11.5752 23.4297 11.5585 24.2123L11.4587 28.1582C11.4587 28.3746 11.5253 28.5744 11.6751 28.7243C11.8249 28.8741 12.0247 28.9573 12.2412 28.9573H16.1538C16.953 28.9573 17.7189 28.641 18.3016 28.0749Z" fill="#1BAC4B"/>
</svg>
