<svg width="14" height="12" viewBox="0 0 14 12" fill="none" xmlns="http://www.w3.org/2000/svg">
<path fill-rule="evenodd" clip-rule="evenodd" d="M4.91841 2.25237C4.91841 3.49682 3.89249 4.50548 2.62583 4.50548C1.35991 4.50548 0.333252 3.49682 0.333252 2.25237C0.333252 1.00866 1.35991 0 2.62583 0C3.89249 0 4.91841 1.00866 4.91841 2.25237ZM12.6621 1.26555C13.2162 1.26555 13.6666 1.70802 13.6666 2.25237C13.6666 2.79746 13.2162 3.23992 12.6621 3.23992H8.27847C7.72366 3.23992 7.27329 2.79746 7.27329 2.25237C7.27329 1.70802 7.72366 1.26555 8.27847 1.26555H12.6621ZM1.33843 8.63863H5.72211C6.27692 8.63863 6.72729 9.0811 6.72729 9.62619C6.72729 10.1705 6.27692 10.6137 5.72211 10.6137H1.33843C0.78362 10.6137 0.333252 10.1705 0.333252 9.62619C0.333252 9.0811 0.78362 8.63863 1.33843 8.63863ZM11.374 11.8519C12.6407 11.8519 13.6666 10.8432 13.6666 9.59948C13.6666 8.35503 12.6407 7.34638 11.374 7.34638C10.1081 7.34638 9.08143 8.35503 9.08143 9.59948C9.08143 10.8432 10.1081 11.8519 11.374 11.8519Z" fill="#1BAC4B"/>
</svg>
