<svg width="28" height="28" viewBox="0 0 28 28" fill="none" xmlns="http://www.w3.org/2000/svg">
<path d="M13.9999 18.6666C16.5772 18.6666 18.6666 16.5773 18.6666 14C18.6666 11.4227 16.5772 9.33331 13.9999 9.33331C11.4226 9.33331 9.33325 11.4227 9.33325 14C9.33325 16.5773 11.4226 18.6666 13.9999 18.6666Z" fill="white"/>
<path d="M15.1666 4.74715V2.33331H12.8333V4.74715C10.7803 5.00927 8.87238 5.94551 7.40892 7.40898C5.94545 8.87244 5.00921 10.7803 4.74708 12.8333H2.33325V15.1666H4.74708C5.00883 17.2198 5.94494 19.1279 7.40848 20.5914C8.87202 22.055 10.7801 22.9911 12.8333 23.2528V25.6666H15.1666V23.2528C17.2198 22.9913 19.128 22.0552 20.5916 20.5916C22.0551 19.1281 22.9912 17.2199 23.2528 15.1666H25.6666V12.8333H23.2528C22.991 10.7802 22.0549 8.87208 20.5914 7.40854C19.1278 5.94501 17.2197 5.00889 15.1666 4.74715ZM13.9999 21C10.1394 21 6.99992 17.8605 6.99992 14C6.99992 10.1395 10.1394 6.99998 13.9999 6.99998C17.8604 6.99998 20.9999 10.1395 20.9999 14C20.9999 17.8605 17.8604 21 13.9999 21Z" fill="white"/>
</svg>
