<svg width="22" height="21" viewBox="0 0 22 21" fill="none" xmlns="http://www.w3.org/2000/svg">
<path fill-rule="evenodd" clip-rule="evenodd" d="M14.85 1.00016C15.481 1.00016 16.111 1.08916 16.71 1.29016C20.401 2.49016 21.731 6.54016 20.62 10.0802C19.99 11.8892 18.96 13.5402 17.611 14.8892C15.68 16.7592 13.561 18.4192 11.28 19.8492L11.03 20.0002L10.77 19.8392C8.48102 18.4192 6.35002 16.7592 4.40102 14.8792C3.06102 13.5302 2.03002 11.8892 1.39002 10.0802C0.260017 6.54016 1.59002 2.49016 5.32102 1.26916C5.61102 1.16916 5.91002 1.09916 6.21002 1.06016H6.33002C6.61102 1.01916 6.89002 1.00016 7.17002 1.00016H7.28002C7.91002 1.01916 8.52002 1.12916 9.11102 1.33016H9.17002C9.21002 1.34916 9.24002 1.37016 9.26002 1.38916C9.48102 1.46016 9.69002 1.54016 9.89002 1.65016L10.27 1.82016C10.3618 1.86913 10.4649 1.94396 10.554 2.00863C10.6104 2.0496 10.6612 2.0865 10.7 2.11016C10.7163 2.11979 10.7329 2.12947 10.7496 2.13923C10.8354 2.18928 10.9247 2.24142 11 2.29916C12.111 1.45016 13.46 0.99016 14.85 1.00016ZM17.51 8.20016C17.92 8.18916 18.27 7.86016 18.3 7.43916V7.32016C18.33 5.91916 17.481 4.65016 16.19 4.16016C15.78 4.01916 15.33 4.24016 15.18 4.66016C15.04 5.08016 15.26 5.54016 15.68 5.68916C16.321 5.92916 16.75 6.56016 16.75 7.25916V7.29016C16.731 7.51916 16.8 7.74016 16.94 7.91016C17.08 8.08016 17.29 8.17916 17.51 8.20016Z" fill="white"/>
<path d="M16.71 1.29016L16.5509 1.7642L16.5554 1.76566L16.71 1.29016ZM14.85 1.00016L14.8464 1.50016H14.85V1.00016ZM20.62 10.0802L21.0922 10.2446L21.0948 10.2373L21.0971 10.2299L20.62 10.0802ZM17.611 14.8892L17.9589 15.2484L17.9646 15.2427L17.611 14.8892ZM11.28 19.8492L11.5386 20.2772L11.5456 20.2728L11.28 19.8492ZM11.03 20.0002L10.7668 20.4253L11.0268 20.5863L11.2885 20.4281L11.03 20.0002ZM10.77 19.8392L10.5064 20.264L10.5068 20.2643L10.77 19.8392ZM4.40102 14.8792L4.0462 15.2316L4.05389 15.239L4.40102 14.8792ZM1.39002 10.0802L0.913695 10.2322L0.916057 10.2396L0.918647 10.2469L1.39002 10.0802ZM5.32102 1.26916L5.47655 1.74442L5.48401 1.74185L5.32102 1.26916ZM6.21002 1.06016V0.56016H6.17765L6.14556 0.564332L6.21002 1.06016ZM6.33002 1.06016V1.56016H6.3663L6.40221 1.55492L6.33002 1.06016ZM7.28002 1.00016L7.29509 0.500387L7.28755 0.50016H7.28002V1.00016ZM9.11102 1.33016L8.95002 1.80353L9.02832 1.83016H9.11102V1.33016ZM9.17002 1.33016L9.38454 0.878521L9.28273 0.83016H9.17002V1.33016ZM9.26002 1.38916L8.91565 1.75166L8.9984 1.83028L9.10708 1.8652L9.26002 1.38916ZM9.89002 1.65016L9.64906 2.08827L9.66707 2.09817L9.68583 2.10657L9.89002 1.65016ZM10.27 1.82016L10.5053 1.37898L10.49 1.37083L10.4742 1.36375L10.27 1.82016ZM10.554 2.00863L10.2602 2.41324L10.2602 2.41324L10.554 2.00863ZM10.7 2.11016L10.4396 2.53706L10.4459 2.5408L10.7 2.11016ZM10.7496 2.13923L10.4976 2.57104L10.4976 2.57104L10.7496 2.13923ZM11 2.29916L10.6958 2.69596L10.9995 2.92882L11.3036 2.69644L11 2.29916ZM18.3 7.43916L18.7988 7.4747L18.8 7.45695V7.43916H18.3ZM17.51 8.20016L17.4625 8.6979L17.4929 8.7008L17.5234 8.69998L17.51 8.20016ZM18.3 7.32016L17.8 7.30945V7.32016H18.3ZM16.19 4.16016L16.3674 3.6927L16.3601 3.6899L16.3526 3.68734L16.19 4.16016ZM15.18 4.66016L14.709 4.49195L14.7057 4.50205L15.18 4.66016ZM15.68 5.68916L15.8554 5.22083L15.8472 5.21793L15.68 5.68916ZM16.75 7.29016L17.2483 7.3315L17.25 7.31087V7.29016H16.75ZM16.8691 0.816136C16.2121 0.595683 15.5275 0.50016 14.85 0.50016V1.50016C15.4345 1.50016 16.0099 1.58264 16.551 1.76418L16.8691 0.816136ZM21.0971 10.2299C22.2642 6.51116 20.8918 2.12396 16.8646 0.814659L16.5554 1.76566C19.9102 2.85636 21.1979 6.56916 20.143 9.93044L21.0971 10.2299ZM17.9646 15.2427C19.3676 13.8397 20.4378 12.1238 21.0922 10.2446L20.1478 9.91572C19.5423 11.6545 18.5525 13.2406 17.2575 14.5356L17.9646 15.2427ZM11.5456 20.2728C13.8561 18.8243 16.0027 17.1427 17.9589 15.2483L17.2632 14.53C15.3573 16.3756 13.2659 18.014 11.0144 19.4255L11.5456 20.2728ZM11.2885 20.4281L11.5385 20.2771L11.0215 19.4212L10.7715 19.5722L11.2885 20.4281ZM10.5068 20.2643L10.7668 20.4253L11.2933 19.5751L11.0333 19.4141L10.5068 20.2643ZM4.05389 15.239C6.02818 17.1434 8.18715 18.8253 10.5064 20.264L11.0336 19.4143C8.77488 18.0131 6.67186 16.3749 4.74814 14.5193L4.05389 15.239ZM0.918647 10.2469C1.58319 12.1253 2.65389 13.8298 4.04628 15.2315L4.75575 14.5268C3.46815 13.2305 2.47684 11.653 1.86139 9.9134L0.918647 10.2469ZM5.1655 0.793959C1.10129 2.12401 -0.274718 6.50921 0.913695 10.2322L1.86634 9.92811C0.794751 6.57111 2.07874 2.85631 5.47653 1.74436L5.1655 0.793959ZM6.14556 0.564332C5.81201 0.607693 5.48 0.685446 5.15802 0.796473L5.48401 1.74185C5.74203 1.65287 6.00802 1.59063 6.27447 1.55599L6.14556 0.564332ZM6.33002 0.56016H6.21002V1.56016H6.33002V0.56016ZM7.17002 0.50016C6.86719 0.50016 6.56401 0.520724 6.25783 0.565398L6.40221 1.55492C6.65802 1.5176 6.91285 1.50016 7.17002 1.50016V0.50016ZM7.28002 0.50016H7.17002V1.50016H7.28002V0.50016ZM9.27201 0.856788C8.63354 0.639643 7.97433 0.520872 7.29509 0.500387L7.26494 1.49993C7.8457 1.51745 8.40649 1.61868 8.95002 1.80353L9.27201 0.856788ZM9.17002 0.83016H9.11102V1.83016H9.17002V0.83016ZM9.60439 1.02666C9.53972 0.965219 9.46362 0.916081 9.38454 0.878521L8.95549 1.7818C8.95493 1.78153 8.95131 1.77978 8.94517 1.77568C8.93936 1.77181 8.92889 1.76424 8.91565 1.75166L9.60439 1.02666ZM10.131 1.21205C9.89203 1.08063 9.64974 0.989196 9.41295 0.913123L9.10708 1.8652C9.31229 1.93112 9.48801 1.99969 9.64906 2.08827L10.131 1.21205ZM10.4742 1.36375L10.0942 1.19375L9.68583 2.10657L10.0658 2.27657L10.4742 1.36375ZM10.8477 1.60402C10.7666 1.5451 10.6338 1.44751 10.5053 1.37898L10.0347 2.26134C10.0899 2.29076 10.1632 2.34281 10.2602 2.41324L10.8477 1.60402ZM10.9604 1.68331C10.9428 1.67259 10.911 1.64998 10.8477 1.60402L10.2602 2.41324C10.3098 2.44922 10.3796 2.50041 10.4396 2.53701L10.9604 1.68331ZM11.0017 1.70742C10.9848 1.69755 10.9692 1.68846 10.9541 1.67952L10.4459 2.5408C10.4634 2.55112 10.481 2.56139 10.4976 2.57104L11.0017 1.70742ZM11.3042 1.90236C11.1993 1.82194 11.0814 1.75394 11.0017 1.70741L10.4976 2.57104C10.5894 2.62462 10.6501 2.66089 10.6958 2.69596L11.3042 1.90236ZM14.8536 0.500173C13.3501 0.489356 11.8936 0.987049 10.6964 1.90188L11.3036 2.69644C12.3285 1.91327 13.5699 1.49096 14.8464 1.50015L14.8536 0.500173ZM17.8013 7.40362C17.7896 7.56784 17.6497 7.69623 17.4966 7.70034L17.5234 8.69998C18.1903 8.68209 18.7505 8.15248 18.7988 7.4747L17.8013 7.40362ZM17.8 7.32016V7.43916H18.8V7.32016H17.8ZM16.0126 4.62762C17.1025 5.04128 17.8257 6.11648 17.8001 7.30945L18.7999 7.33086C18.8344 5.72184 17.8596 4.25904 16.3674 3.6927L16.0126 4.62762ZM15.6509 4.82833C15.7121 4.65696 15.8856 4.5842 16.0274 4.63298L16.3526 3.68734C15.6745 3.45412 14.9479 3.82336 14.7091 4.49199L15.6509 4.82833ZM15.8472 5.21793C15.6871 5.16116 15.5994 4.9831 15.6544 4.81827L14.7057 4.50205C14.4806 5.17722 14.8329 5.91916 15.5128 6.16038L15.8472 5.21793ZM17.25 7.25916C17.25 6.35848 16.6979 5.53639 15.8553 5.2209L15.5047 6.15741C15.9441 6.32193 16.25 6.76184 16.25 7.25916H17.25ZM17.25 7.29016V7.25916H16.25V7.29016H17.25ZM17.326 7.59231C17.2707 7.52523 17.2398 7.43383 17.2483 7.3315L16.2517 7.24882C16.2222 7.60449 16.3293 7.95509 16.5541 8.22801L17.326 7.59231ZM17.5575 7.70242C17.4506 7.69221 17.37 7.64579 17.326 7.59231L16.5541 8.22801C16.79 8.51453 17.1295 8.66611 17.4625 8.6979L17.5575 7.70242Z" fill="black"/>
</svg>
