<svg width="20" height="20" viewBox="0 0 20 20" fill="none" xmlns="http://www.w3.org/2000/svg">
<path fill-rule="evenodd" clip-rule="evenodd" d="M2.91675 8.59809C2.91675 4.76487 6.11998 1.66663 9.99462 1.66663C13.8802 1.66663 17.0834 4.76487 17.0834 8.59809C17.0834 10.5297 16.3809 12.323 15.2247 13.8429C13.9491 15.5196 12.3769 16.9803 10.6072 18.127C10.2022 18.392 9.83664 18.412 9.39212 18.127C7.61236 16.9803 6.04015 15.5196 4.7755 13.8429C3.6184 12.323 2.91675 10.5297 2.91675 8.59809ZM7.66194 8.81392C7.66194 10.098 8.7098 11.108 9.99462 11.108C11.2803 11.108 12.3382 10.098 12.3382 8.81392C12.3382 7.53979 11.2803 6.48065 9.99462 6.48065C8.7098 6.48065 7.66194 7.53979 7.66194 8.81392Z" fill="#212121"/>
</svg>
