<svg width="24" height="24" viewBox="0 0 24 24" fill="none" xmlns="http://www.w3.org/2000/svg">
<path d="M13.1667 2.74684V0.333008H10.8334V2.74684C8.78039 3.00897 6.8725 3.94521 5.40904 5.40867C3.94557 6.87214 3.00934 8.78002 2.74721 10.833H0.333374V13.1663H2.74721C3.00895 15.2195 3.94507 17.1276 5.4086 18.5911C6.87214 20.0546 8.78024 20.9908 10.8334 21.2525V23.6663H13.1667V21.2525C15.2199 20.991 17.1281 20.0549 18.5917 18.5913C20.0553 17.1278 20.9913 15.2196 21.2529 13.1663H23.6667V10.833H21.2529C20.9911 8.77987 20.055 6.87177 18.5915 5.40824C17.1279 3.9447 15.2198 3.00859 13.1667 2.74684ZM12 18.9997C8.13954 18.9997 5.00004 15.8602 5.00004 11.9997C5.00004 8.13917 8.13954 4.99967 12 4.99967C15.8605 4.99967 19 8.13917 19 11.9997C19 15.8602 15.8605 18.9997 12 18.9997Z" fill="white"/>
</svg>
