<svg width="14" height="14" viewBox="0 0 14 14" fill="none" xmlns="http://www.w3.org/2000/svg">
<path d="M11.2915 11.6691C9.88557 12.2815 8.07487 12.5888 6.39284 12.5112C5.06063 12.4782 3.22447 12.2858 1.93034 11.6674C1.38265 11.4167 0.894287 11.1022 0.478936 10.7331C0.477842 10.7323 0.476748 10.7312 0.475928 10.7303C0.307217 10.5786 0.14917 10.4077 0.00561523 10.2223C0.0545606 10.9792 0.443389 11.7957 1.0239 12.3423C2.52862 13.745 4.78257 13.9271 6.42593 13.9897C7.4893 14.0375 8.60676 13.919 9.6153 13.6526C10.845 13.3272 11.8859 12.7882 12.6261 12.0934C13.3592 11.4055 13.8019 10.581 13.9468 9.6355C13.8457 9.77769 13.7357 9.91605 13.6171 10.05C13.0335 10.7093 12.251 11.254 11.2915 11.6691Z" fill="#00C855"/>
<path d="M4.6705 3.15776C4.52588 3.33262 4.5509 3.59263 4.72658 3.7364C4.91268 3.89005 5.1911 3.84764 5.32708 3.64951C5.58501 3.30861 5.91811 2.4495 5.3326 1.63805C5.1853 1.4339 5.15189 1.23762 5.22741 1.02046C5.29243 0.833537 5.41537 0.70535 5.4166 0.704065C5.5823 0.549463 5.58594 0.287975 5.42459 0.128834C5.26747 -0.0435954 4.99759 -0.0408064 4.83623 0.124377C4.51221 0.445776 4.05991 1.2761 4.66738 2.11804C5.03434 2.62663 4.70884 3.1049 4.6705 3.15776Z" fill="#00C855"/>
<path d="M2.46664 3.15776C2.32202 3.33262 2.34704 3.59263 2.52272 3.7364C2.70883 3.89005 2.98724 3.84764 3.12322 3.64951C3.38115 3.30861 3.71426 2.4495 3.12874 1.63805C2.98144 1.4339 2.94803 1.23762 3.02355 1.02046C3.08858 0.833537 3.21151 0.70535 3.21274 0.704065C3.37845 0.549463 3.38208 0.287975 3.22073 0.128834C3.06361 -0.0435954 2.79373 -0.0408064 2.63237 0.124377C2.30835 0.445776 1.85606 1.2761 2.46353 2.11804C2.83048 2.62663 2.50498 3.1049 2.46664 3.15776Z" fill="#00C855"/>
<path d="M0.302851 3.15773C0.15823 3.33259 0.18325 3.5926 0.358933 3.73638C0.545035 3.89002 0.823449 3.84761 0.959429 3.64948C1.21734 3.30858 1.55044 2.44947 0.964925 1.63805C0.817625 1.4339 0.784211 1.23762 0.859734 1.02046C0.924758 0.833537 1.0477 0.70535 1.04893 0.704065C1.21463 0.549463 1.21827 0.287975 1.05691 0.128834C0.899793 -0.0435954 0.62991 -0.0408064 0.468554 0.124377C0.144531 0.445776 -0.307762 1.2761 0.299707 2.11804C0.66666 2.6266 0.341187 3.10487 0.302851 3.15773Z" fill="#00C855"/>
<path d="M10.6816 5.71436C11.1347 5.71436 11.502 5.34709 11.502 4.89404C11.502 4.441 11.1347 4.07373 10.6816 4.07373C10.2286 4.07373 9.86133 4.441 9.86133 4.89404C9.86133 5.34709 10.2286 5.71436 10.6816 5.71436Z" fill="#00C855"/>
<path d="M1.02385 10.12C2.52912 11.4582 4.78197 11.631 6.42588 11.6917C7.98119 11.7631 9.66311 11.4831 10.9658 10.916C12.9236 10.0599 13.99 8.68694 14.0001 6.85901C14.0001 4.91815 13.4817 3.4826 12.5011 2.7074C11.7478 2.11158 10.7558 1.91936 9.55318 2.13537C8.24971 2.34647 7.30936 3.09295 6.42588 3.86487C6.05783 4.18643 5.68787 4.52303 5.30561 4.82381C4.87713 5.16069 4.37838 5.40842 3.8233 5.56018C3.53127 5.6403 3.2067 5.68268 2.86326 5.72807C2.13209 5.82404 1.37576 5.9233 0.755607 6.39826C-0.0472054 6.98834 -0.17326 8.0583 0.208459 8.95108C0.389201 9.39487 0.678771 9.81022 1.02385 10.12ZM10.6817 3.25346C11.5862 3.25346 12.3223 3.98955 12.3223 4.89408C12.3223 5.79889 11.5862 6.53471 10.6817 6.53471C9.77713 6.53471 9.04104 5.79889 9.04104 4.89408C9.04104 3.98955 9.77713 3.25346 10.6817 3.25346ZM7.0258 5.33514C7.21256 5.20662 7.46768 5.25365 7.59619 5.44014L10.1091 9.08697C10.2376 9.27346 10.1908 9.52885 10.0041 9.65736C9.81979 9.78506 9.56303 9.73994 9.43369 9.55236L6.9208 5.90553C6.79229 5.71905 6.83932 5.46365 7.0258 5.33514ZM5.10108 6.70889C5.28783 6.58037 5.54322 6.6274 5.67174 6.81389L7.57432 9.57615C7.70283 9.76264 7.65553 10.018 7.46904 10.1465C7.28475 10.2742 7.02799 10.2291 6.89865 10.0415L4.99608 7.27928C4.86756 7.09279 4.91459 6.8374 5.10108 6.70889ZM2.65901 7.33424C2.84549 7.20572 3.10088 7.25303 3.2294 7.43951L4.51756 9.31201C4.6458 9.49877 4.59877 9.75416 4.41201 9.8824C4.22772 10.0101 3.97069 9.96526 3.84162 9.77713L2.55346 7.90463C2.42522 7.71787 2.47225 7.46248 2.65901 7.33424Z" fill="#00C855"/>
</svg>
