<svg width="60" height="60" viewBox="0 0 60 60" fill="none" xmlns="http://www.w3.org/2000/svg">
<rect width="60" height="60" rx="30" fill="#F75555" fill-opacity="0.08"/>
<path fill-rule="evenodd" clip-rule="evenodd" d="M24.948 18.3324H35.063C39.018 18.3324 41.6663 21.1091 41.6663 25.2391V34.7719C41.6663 38.8902 39.018 41.6657 35.063 41.6657H24.948C20.993 41.6657 18.333 38.8902 18.333 34.7719V25.2391C18.333 21.1091 20.993 18.3324 24.948 18.3324ZM33.5113 33.4991C33.908 33.1036 33.908 32.4619 33.5113 32.0652L31.4347 29.9886L33.5113 27.9107C33.908 27.5152 33.908 26.8619 33.5113 26.4652C33.1147 26.0674 32.473 26.0674 32.0647 26.4652L29.9997 28.5407L27.923 26.4652C27.5147 26.0674 26.873 26.0674 26.4763 26.4652C26.0797 26.8619 26.0797 27.5152 26.4763 27.9107L28.553 29.9886L26.4763 32.0536C26.0797 32.4619 26.0797 33.1036 26.4763 33.4991C26.6747 33.6974 26.943 33.8036 27.1997 33.8036C27.468 33.8036 27.7247 33.6974 27.923 33.4991L29.9997 31.4352L32.0763 33.4991C32.2747 33.7102 32.5313 33.8036 32.788 33.8036C33.0563 33.8036 33.313 33.6974 33.5113 33.4991Z" fill="url(#paint0_linear_75_6996)"/>
<defs>
<linearGradient id="paint0_linear_75_6996" x1="41.6663" y1="41.6657" x2="13.9018" y2="33.6156" gradientUnits="userSpaceOnUse">
<stop stop-color="#FF4D67"/>
<stop offset="1" stop-color="#FF8A9B"/>
</linearGradient>
</defs>
</svg>
