<svg width="19" height="20" viewBox="0 0 19 20" fill="none" xmlns="http://www.w3.org/2000/svg">
<path fill-rule="evenodd" clip-rule="evenodd" d="M4.935 0H13.316C16.405 0 18.125 1.78 18.125 4.83V15.16C18.125 18.26 16.405 20 13.316 20H4.935C1.895 20 0.125 18.26 0.125 15.16V4.83C0.125 1.78 1.895 0 4.935 0ZM5.205 4.66V4.65H8.194C8.625 4.65 8.975 5 8.975 5.429C8.975 5.87 8.625 6.22 8.194 6.22H5.205C4.774 6.22 4.425 5.87 4.425 5.44C4.425 5.01 4.774 4.66 5.205 4.66ZM5.205 10.74H13.045C13.475 10.74 13.825 10.39 13.825 9.96C13.825 9.53 13.475 9.179 13.045 9.179H5.205C4.774 9.179 4.425 9.53 4.425 9.96C4.425 10.39 4.774 10.74 5.205 10.74ZM5.205 15.31H13.045C13.444 15.27 13.745 14.929 13.745 14.53C13.745 14.12 13.444 13.78 13.045 13.74H5.205C4.905 13.71 4.615 13.85 4.455 14.11C4.295 14.36 4.295 14.69 4.455 14.95C4.615 15.2 4.905 15.35 5.205 15.31Z" fill="#1BAC4B"/>
</svg>
