<svg width="340" height="250" viewBox="0 0 340 250" fill="none" xmlns="http://www.w3.org/2000/svg">
<g clip-path="url(#clip0_75_6725)">
<path opacity="0.1" d="M4.14893 119.859C9.50195 140.543 20.8243 158.422 38.7171 167.089C75.9139 185.101 159.803 175.811 222.412 165.148C254.798 159.633 283.264 144.412 303.943 122.993L4.14893 119.859Z" fill="#1BAC4B"/>
<path opacity="0.1" d="M332.467 22.5011H298.115C296.485 22.5011 295.147 21.2933 295.147 19.8175C295.147 18.3417 296.485 17.1308 298.115 17.1308H304.057C302.423 17.1308 301.089 15.923 301.089 14.4441C301.089 12.9652 302.423 11.7605 304.057 11.7605H299.816C298.183 11.7605 296.845 10.5528 296.845 9.07385C296.845 7.59495 298.183 6.39025 299.816 6.39025H317.746C313.767 4.71724 309.117 3.52795 303.758 2.9025C254.866 -2.77589 237.41 0.979919 231.253 4.84048C223.578 9.71239 215.053 13.0929 206.124 14.8046C175.96 20.4337 119.548 27.2059 68.419 12.6479C43.0068 5.39815 24.1186 17.633 12.7993 38.0851H338.434C338.008 32.1417 336.736 26.6513 334.4 21.8479C333.846 22.275 333.166 22.5049 332.467 22.5011Z" fill="#1BAC4B"/>
<path opacity="0.1" d="M1.2366 76.6875C-0.0828645 88.7165 0.365662 100.874 2.56793 112.773L304.174 122.752C312.476 114.144 319.53 104.413 325.13 93.8459L1.2366 76.6875ZM120.525 102.43H114.587C116.22 102.43 117.558 103.641 117.558 105.116C117.558 106.592 116.22 107.8 114.587 107.8H80.2345C78.6042 107.8 77.2668 106.592 77.2668 105.116C77.2668 103.641 78.6042 102.43 80.2345 102.43H86.1761C84.5428 102.43 83.2084 101.222 83.2084 99.7461C83.2084 98.2703 84.5428 97.0594 86.1761 97.0594H81.9325C80.2992 97.0594 78.9617 95.8517 78.9617 94.3758C78.9617 92.9 80.2992 91.6892 81.9325 91.6892H116.285C117.918 91.6892 119.253 92.8969 119.253 94.3758C119.253 95.8548 117.918 97.0594 116.285 97.0594H120.525C122.159 97.0594 123.493 98.2672 123.493 99.7461C123.493 101.225 122.159 102.43 120.525 102.43Z" fill="#1BAC4B"/>
<path opacity="0.1" d="M338.446 38.27L9.16577 45.5105C5.15948 54.8245 2.503 65.3556 1.27954 76.2687H332.677C334.834 69.8839 336.434 63.3245 337.46 56.6639C338.449 50.2522 338.843 44.0501 338.446 38.27ZM68.1353 62.0096H62.1967C63.8301 62.0096 65.1675 63.2204 65.1675 64.6962C65.1675 66.1721 63.8301 67.3829 62.1967 67.3829H27.8443C26.2141 67.3829 24.8766 66.1721 24.8766 64.6962C24.8766 63.2204 26.2141 62.0096 27.8443 62.0096H33.786C32.1526 62.0096 30.8182 60.8018 30.8182 59.326C30.8182 57.8501 32.1526 56.6393 33.786 56.6393H29.5424C27.909 56.6393 26.5716 55.4315 26.5716 53.9557C26.5716 52.4799 27.909 51.269 29.5424 51.269H63.8948C65.5281 51.269 66.8625 52.4768 66.8625 53.9557C66.8625 55.4346 65.5281 56.6393 63.8948 56.6393H68.1353C69.7686 56.6393 71.103 57.8501 71.103 59.326C71.103 60.8018 69.7686 62.0096 68.1353 62.0096Z" fill="#1BAC4B"/>
<path opacity="0.1" d="M168.481 240.655C244.557 240.655 306.229 234.983 306.229 227.986C306.229 220.989 244.557 215.316 168.481 215.316C92.4043 215.316 30.7322 220.989 30.7322 227.986C30.7322 234.983 92.4043 240.655 168.481 240.655Z" fill="#1BAC4B"/>
<path d="M255.476 21.33C255.476 21.33 229.527 19.7679 232.588 37.9461C232.588 37.9461 231.971 41.1566 234.893 42.617C234.893 42.617 234.939 41.2706 237.552 41.7266C238.484 41.8824 239.43 41.9279 240.372 41.8621C241.645 41.7756 242.855 41.2758 243.817 40.4387C243.817 40.4387 251.112 37.4285 253.95 25.5079C253.95 25.5079 256.049 22.9075 255.966 22.242L251.587 24.1091C251.587 24.1091 253.081 27.2672 251.895 29.8922C251.895 29.8922 251.753 24.2262 250.912 24.3463C250.742 24.3741 248.637 25.4401 248.637 25.4401C248.637 25.4401 251.211 30.9429 249.254 34.939C249.254 34.939 249.99 28.1607 247.818 25.8376L244.736 27.6369C244.736 27.6369 247.744 33.3184 245.704 37.9554C245.704 37.9554 246.227 30.8443 244.089 28.0744L241.294 30.2527C241.294 30.2527 244.119 35.8541 242.397 39.6992C242.397 39.6992 242.172 31.4204 240.689 30.795C240.689 30.795 238.246 32.9517 237.873 33.836C237.873 33.836 239.808 37.8999 238.609 40.0443C238.609 40.0443 237.873 34.5292 237.269 34.4984C237.269 34.4984 234.834 38.1526 234.578 40.6605C234.578 40.6605 234.686 36.9325 236.677 34.1503C236.677 34.1503 234.323 34.5539 232.951 36.0821C232.951 36.0821 233.33 33.4971 237.266 33.2722C237.266 33.2722 239.278 30.4992 239.817 30.3328C239.817 30.3328 235.888 30.0032 233.506 31.06C233.506 31.06 235.601 28.6228 240.535 29.7289L243.309 27.4798C243.309 27.4798 238.138 26.7711 235.944 27.5537C235.944 27.5537 238.468 25.397 244.052 26.9683L247.056 25.1721C247.056 25.1721 242.646 24.2231 240.018 24.5559C240.018 24.5559 242.791 23.0615 247.935 24.6822L250.092 23.7178C250.092 23.7178 246.859 23.0831 245.913 22.9845C244.967 22.8859 244.918 22.6209 244.918 22.6209C246.971 22.2872 249.076 22.5315 250.998 23.3265C250.998 23.3265 255.553 21.6165 255.476 21.33Z" fill="#1BAC4B"/>
<path d="M228.862 13.2487C228.862 13.2487 217.151 12.5401 218.519 20.7542C218.519 20.7542 218.245 22.2054 219.561 22.8647C219.561 22.8647 219.579 22.2485 220.763 22.4642C221.183 22.5334 221.61 22.554 222.035 22.5258C222.611 22.4847 223.158 22.2589 223.595 21.8819C223.595 21.8819 226.889 20.52 228.171 15.1344C228.171 15.1344 229.12 13.9605 229.096 13.6585L227.117 14.5027C227.117 14.5027 227.795 15.9293 227.262 17.1155C227.262 17.1155 227.197 14.5551 226.818 14.6167C226.741 14.6167 225.789 15.1097 225.789 15.1097C225.789 15.1097 226.954 17.5961 226.076 19.4016C226.076 19.4016 226.408 16.339 225.428 15.2884L224.036 16.1018C224.036 16.1018 225.395 18.6714 224.473 20.7665C224.473 20.7665 224.707 17.553 223.743 16.3021L222.479 17.2849C222.479 17.2849 223.755 19.8145 222.978 21.5522C222.978 21.5522 222.877 17.8118 222.205 17.5283C222.205 17.5283 221.102 18.5019 220.932 18.9025C220.932 18.9025 221.807 20.7511 221.265 21.7093C221.265 21.7093 220.932 19.2167 220.649 19.2075C220.649 19.2075 219.548 20.8559 219.434 21.9805C219.487 20.9339 219.814 19.9195 220.381 19.038C219.746 19.158 219.161 19.4611 218.698 19.91C218.698 19.91 218.867 18.7423 220.652 18.6406C220.652 18.6406 221.561 17.3897 221.804 17.3127C221.804 17.3127 220.029 17.1648 218.954 17.6423C218.954 17.6423 219.9 16.5393 222.131 17.0261L223.364 16.0125C223.364 16.0125 221.028 15.7043 220.035 16.0433C220.035 16.0433 221.176 15.0696 223.7 15.7814L225.056 14.968C225.056 14.968 223.065 14.5397 221.875 14.6938C221.875 14.6938 223.129 14.019 225.453 14.7523L226.424 14.3148C226.424 14.3148 224.963 14.0283 224.538 13.9851C224.113 13.942 224.085 13.8218 224.085 13.8218C225.01 13.668 225.96 13.7746 226.828 14.1299C226.828 14.1299 228.895 13.3781 228.862 13.2487Z" fill="#1BAC4B"/>
<path opacity="0.1" d="M331.201 224.92C335.784 224.92 339.5 224.292 339.5 223.518C339.5 222.744 335.784 222.116 331.201 222.116C326.617 222.116 322.902 222.744 322.902 223.518C322.902 224.292 326.617 224.92 331.201 224.92Z" fill="#1BAC4B"/>
<path opacity="0.1" d="M14.9134 248.241C19.497 248.241 23.2126 247.613 23.2126 246.839C23.2126 246.065 19.497 245.437 14.9134 245.437C10.3299 245.437 6.61426 246.065 6.61426 246.839C6.61426 247.613 10.3299 248.241 14.9134 248.241Z" fill="#1BAC4B"/>
<path opacity="0.1" d="M63.0907 250C67.6742 250 71.3899 249.372 71.3899 248.598C71.3899 247.824 67.6742 247.196 63.0907 247.196C58.5072 247.196 54.7915 247.824 54.7915 248.598C54.7915 249.372 58.5072 250 63.0907 250Z" fill="#1BAC4B"/>
<path d="M313.037 240.637C319.881 240.637 325.429 239.699 325.429 238.541C325.429 237.384 319.881 236.446 313.037 236.446C306.193 236.446 300.645 237.384 300.645 238.541C300.645 239.699 306.193 240.637 313.037 240.637Z" fill="#1BAC4B"/>
<path d="M318.159 235.119C318.724 234.657 319.137 234.035 319.342 233.335C319.493 232.629 319.191 231.779 318.516 231.52C317.758 231.23 316.948 231.757 316.334 232.287C315.721 232.817 315.015 233.421 314.211 233.31C314.625 232.936 314.934 232.46 315.109 231.93C315.284 231.401 315.319 230.835 315.21 230.287C315.174 230.061 315.079 229.848 314.932 229.671C314.51 229.221 313.749 229.412 313.243 229.767C311.641 230.894 311.194 233.07 311.185 235.029C311.024 234.324 311.16 233.587 311.157 232.872C311.154 232.158 310.954 231.332 310.343 230.953C309.965 230.751 309.54 230.651 309.111 230.663C308.39 230.636 307.588 230.706 307.095 231.233C306.479 231.89 306.642 232.986 307.175 233.698C307.709 234.41 308.516 234.872 309.259 235.368C309.856 235.723 310.366 236.209 310.75 236.789C310.795 236.87 310.832 236.956 310.861 237.044H315.376C316.386 236.531 317.322 235.883 318.159 235.119Z" fill="#1BAC4B"/>
<path d="M18.7871 209.284C18.7871 209.284 20.479 211.496 18.0043 214.83C15.5297 218.163 13.4895 220.992 14.3062 223.075C14.3062 223.075 18.0382 216.869 21.0861 216.78C24.1339 216.691 22.1277 213.015 18.7871 209.284Z" fill="#1BAC4B"/>
<path opacity="0.1" d="M18.7872 209.284C18.9342 209.497 19.0503 209.731 19.1324 209.977C22.097 213.459 23.6749 216.709 20.8274 216.789C18.1709 216.866 14.972 221.611 14.2231 222.81C14.2493 222.902 14.2802 222.994 14.3156 223.084C14.3156 223.084 18.0476 216.878 21.0955 216.789C24.1433 216.7 22.1279 213.015 18.7872 209.284Z" fill="black"/>
<path d="M21.9335 212.103C21.9335 212.883 21.8442 213.514 21.7363 213.514C21.6285 213.514 21.5422 212.898 21.5422 212.103C21.5422 211.308 21.6501 211.69 21.761 211.69C21.8719 211.69 21.9335 211.324 21.9335 212.103Z" fill="#FFD037"/>
<path d="M22.9997 213.034C22.3157 213.406 21.7211 213.631 21.6687 213.536C21.6163 213.44 22.1309 213.064 22.8149 212.692C23.4989 212.319 23.2277 212.59 23.2801 212.692C23.3325 212.793 23.696 212.661 22.9997 213.034Z" fill="#FFD037"/>
<path d="M9.84395 209.284C9.84395 209.284 8.15206 211.496 10.6236 214.83C13.0952 218.163 15.1384 220.992 14.3217 223.075C14.3217 223.075 10.5867 216.869 7.54187 216.78C4.49709 216.691 6.50024 213.015 9.84395 209.284Z" fill="#1BAC4B"/>
<path opacity="0.1" d="M9.84402 209.284C9.69575 209.497 9.57946 209.73 9.49886 209.977C6.53421 213.459 4.95326 216.709 7.80389 216.789C10.4573 216.866 13.6592 221.611 14.405 222.81C14.3799 222.902 14.3501 222.994 14.3157 223.084C14.3157 223.084 10.5806 216.878 7.53578 216.789C4.491 216.7 6.50031 213.015 9.84402 209.284Z" fill="black"/>
<path d="M6.69751 212.103C6.69751 212.883 6.78378 213.514 6.89162 213.514C6.99945 213.514 7.08572 212.898 7.08572 212.103C7.08572 211.308 6.97789 211.69 6.87005 211.69C6.76221 211.69 6.69751 211.324 6.69751 212.103Z" fill="#FFD037"/>
<path d="M5.6156 213.034C6.29959 213.406 6.89732 213.631 6.9497 213.536C7.00207 213.44 6.48754 213.064 5.80354 212.692C5.11955 212.319 5.3876 212.59 5.3383 212.692C5.28901 212.793 4.9316 212.661 5.6156 213.034Z" fill="#FFD037"/>
<path d="M7.23682 222.794C7.23682 222.794 11.9704 222.65 13.4003 221.633C14.8303 220.616 20.6825 219.405 21.0369 221.017C21.3913 222.628 28.1497 229.12 22.8059 229.163C17.4621 229.206 10.3895 228.328 8.96569 227.462C7.54191 226.596 7.23682 222.794 7.23682 222.794Z" fill="#A8A8A8"/>
<path opacity="0.2" d="M22.8953 228.611C17.5515 228.654 10.4788 227.776 9.05506 226.911C7.97028 226.251 7.53883 223.882 7.39399 222.788H7.23682C7.23682 222.788 7.54499 226.606 8.95952 227.471C10.3741 228.337 17.4559 229.215 22.7997 229.172C24.3406 229.172 24.8737 228.608 24.846 227.798C24.6303 228.294 24.0447 228.602 22.8953 228.611Z" fill="black"/>
</g>
<defs>
<clipPath id="clip0_75_6725">
<rect width="339" height="250" fill="white" transform="translate(0.5)"/>
</clipPath>
</defs>
</svg>
