<svg width="367" height="427" viewBox="0 0 367 427" fill="none" xmlns="http://www.w3.org/2000/svg">
<circle cx="251" cy="418" r="9" fill="url(#paint0_linear_75_2947)" fill-opacity="0.12"/>
<circle cx="110" cy="398" r="20" fill="url(#paint1_linear_75_2947)" fill-opacity="0.12"/>
<circle cx="341" cy="378" r="10" fill="url(#paint2_linear_75_2947)" fill-opacity="0.12"/>
<circle cx="34" cy="345" r="3" fill="url(#paint3_linear_75_2947)" fill-opacity="0.12"/>
<circle cx="362" cy="158" r="5" fill="url(#paint4_linear_75_2947)" fill-opacity="0.12"/>
<circle cx="6" cy="147" r="6" fill="url(#paint5_linear_75_2947)" fill-opacity="0.12"/>
<circle cx="58" cy="90" r="3" fill="url(#paint6_linear_75_2947)" fill-opacity="0.12"/>
<path d="M57.486 196.007H43.6826C43.1972 196.007 42.7317 196.2 42.3885 196.544C42.0453 196.887 41.8525 197.353 41.8525 197.839V203.902C41.8525 204.388 42.0453 204.854 42.3885 205.197C42.7317 205.541 43.1972 205.734 43.6826 205.734H45.97V214.819H55.1986V205.734H57.486C57.9714 205.734 58.4369 205.541 58.7801 205.197C59.1233 204.854 59.3161 204.388 59.3161 203.902V197.839C59.3161 197.353 59.1233 196.887 58.7801 196.544C58.4369 196.2 57.9714 196.007 57.486 196.007Z" fill="#1BAC4B"/>
<path d="M71.3113 251.502C62.8577 239.122 58.536 224.381 58.9654 209.393C58.9731 209.047 58.861 208.709 58.648 208.437C58.435 208.164 58.1344 207.974 57.7972 207.898V205.278H43.2189V207.862H43.018C42.8124 207.862 42.6091 207.905 42.4207 207.987C42.2323 208.069 42.0629 208.19 41.9231 208.341C41.7833 208.492 41.6761 208.67 41.6082 208.864C41.5402 209.058 41.513 209.264 41.5282 209.47C42.6767 225.492 38.7985 239.861 29.8936 252.576C29.3812 253.307 29.1194 254.184 29.1476 255.076L30.7416 304.425C30.7799 305.526 31.2415 306.569 32.0301 307.338C32.8186 308.106 33.8732 308.54 34.9736 308.548H67.9475C69.0605 308.539 70.126 308.096 70.917 307.312C71.7079 306.528 72.1619 305.466 72.1821 304.353L72.7964 256.439C72.8145 254.68 72.2965 252.958 71.3113 251.502Z" fill="#3F3D56"/>
<path d="M66.0917 267.894H62.0988C61.7176 265.418 60.4637 263.161 58.564 261.53C56.6642 259.899 54.244 259.003 51.7412 259.003C49.2384 259.003 46.8183 259.899 44.9185 261.53C43.0188 263.161 41.7649 265.418 41.3837 267.894H37.3905C36.9657 267.894 36.5459 267.986 36.1598 268.163C35.7738 268.341 35.4307 268.6 35.1541 268.923C34.8775 269.245 34.6738 269.624 34.5572 270.033C34.4405 270.442 34.4135 270.871 34.4781 271.291L38.8153 299.506H63.7198L68.9879 271.386C69.0677 270.96 69.0527 270.522 68.9441 270.103C68.8354 269.683 68.6357 269.293 68.3592 268.959C68.0827 268.626 67.7361 268.358 67.3442 268.173C66.9523 267.989 66.5247 267.894 66.0917 267.894Z" fill="#1BAC4B"/>
<path d="M346.748 222.543L345.79 260.855L344.604 308.364H304.23L302.84 252.702L302.086 222.543H346.748Z" fill="#E6E6E6"/>
<path d="M327.096 202.161H321.38V277.969H327.096V202.161Z" fill="#1BAC4B"/>
<path d="M343.89 251.411L342.808 305.865H306.007L304.74 242.066C308.056 241.134 311.528 240.896 314.94 241.365C318.351 241.835 321.63 243.003 324.571 244.796C330.719 248.436 337.627 250.395 343.89 251.411Z" fill="#3F3D56"/>
<path d="M323.354 268.906L319.141 265.779L316.016 269.996L320.229 273.123L323.354 268.906Z" fill="#E6E6E6"/>
<path d="M339.432 263.542L335.219 260.415L332.094 264.632L336.307 267.759L339.432 263.542Z" fill="#E6E6E6"/>
<path d="M315.118 257.541H309.872V262.791H315.118V257.541Z" fill="#E6E6E6"/>
<path d="M329.955 254.24L325.741 251.113L322.616 255.33L326.83 258.457L329.955 254.24Z" fill="#E6E6E6"/>
<path d="M318.691 246.814H313.445V252.064H318.691V246.814Z" fill="#E6E6E6"/>
<path d="M335.672 244.714C336.263 244.714 336.743 244.233 336.743 243.641C336.743 243.048 336.263 242.568 335.672 242.568C335.08 242.568 334.6 243.048 334.6 243.641C334.6 244.233 335.08 244.714 335.672 244.714Z" fill="#3F3D56"/>
<path d="M313.877 237.562C314.469 237.562 314.948 237.082 314.948 236.489C314.948 235.897 314.469 235.416 313.877 235.416C313.285 235.416 312.805 235.897 312.805 236.489C312.805 237.082 313.285 237.562 313.877 237.562Z" fill="#3F3D56"/>
<path d="M332.099 230.053C332.691 230.053 333.171 229.572 333.171 228.98C333.171 228.387 332.691 227.907 332.099 227.907C331.507 227.907 331.027 228.387 331.027 228.98C331.027 229.572 331.507 230.053 332.099 230.053Z" fill="#3F3D56"/>
<path opacity="0.2" d="M54.6085 197.983C54.6085 199.031 54.1925 200.036 53.4521 200.777C52.7116 201.518 51.7073 201.934 50.6602 201.934C49.613 201.934 48.6088 201.518 47.8683 200.777C47.1279 200.036 46.7119 199.031 46.7119 197.983" fill="black"/>
<path d="M187.704 308.037C252.555 308.037 305.127 255.422 305.127 190.519C305.127 125.615 252.555 73 187.704 73C122.853 73 70.2805 125.615 70.2805 190.519C70.2805 255.422 122.853 308.037 187.704 308.037Z" fill="#1BAC4B"/>
<path d="M356 307.911H16V308.999H356V307.911Z" fill="#3F3D56"/>
<path opacity="0.2" d="M187.704 276.296C167.875 276.296 148.66 269.414 133.332 256.825C118.004 244.235 107.512 226.716 103.644 207.253C99.7757 187.789 102.77 167.585 112.118 150.084C121.465 132.582 136.587 118.866 154.906 111.272C173.225 103.677 193.609 102.675 212.584 108.436C231.559 114.197 247.951 126.364 258.967 142.864C269.984 159.365 274.942 179.177 272.999 198.927C271.055 218.676 262.33 237.14 248.308 251.172C240.368 259.162 230.923 265.497 220.521 269.809C210.118 274.122 198.964 276.326 187.704 276.296ZM187.704 110.031C143.359 110.031 107.282 146.138 107.282 190.518C107.282 234.899 143.359 271.005 187.704 271.005C232.048 271.005 268.126 234.899 268.126 190.518C268.126 146.138 232.048 110.031 187.704 110.031Z" fill="black"/>
<path d="M187.704 273.651C233.579 273.651 270.769 236.431 270.769 190.518C270.769 144.606 233.579 107.386 187.704 107.386C141.829 107.386 104.639 144.606 104.639 190.518C104.639 236.431 141.829 273.651 187.704 273.651Z" fill="#3F3D56"/>
<path d="M197.339 250.954L158.883 240.281L160.356 234.804L198.812 245.478L197.339 250.954Z" fill="#F9A825"/>
<path d="M191.701 249.124C178.532 251.647 165.004 251.647 151.835 249.124V243.447C165.034 245.637 178.503 245.637 191.701 243.447V249.124Z" fill="#F9A825"/>
<path d="M224.629 253.747L185.297 260.359L184.385 254.758L223.716 248.146L224.629 253.747Z" fill="#F9A825"/>
<path d="M218.754 254.474C207.85 262.341 195.56 268.078 182.53 271.383L180.196 266.225C193.112 262.605 205.349 256.893 216.421 249.316L218.754 254.474Z" fill="#F9A825"/>
<path d="M194.5 263.826H192.612V265.715H194.5V263.826Z" fill="#00BF71"/>
<path d="M195.8 232.093C182.631 234.616 169.103 234.616 155.934 232.093V226.417C169.132 228.606 182.601 228.606 195.8 226.417V232.093Z" fill="#F9A825"/>
<path d="M209.585 238.906C196.416 241.429 182.888 241.429 169.719 238.906V233.229C182.918 235.418 196.387 235.418 209.585 233.229V238.906Z" fill="#F9A825"/>
<path d="M212.938 245.34C199.769 247.863 186.241 247.863 173.072 245.34V239.663C186.271 241.852 199.74 241.852 212.938 239.663V245.34Z" fill="#F9A825"/>
<path d="M215.477 237.261C204.573 245.128 192.283 250.865 179.253 254.17L176.919 249.012C189.835 245.392 202.072 239.68 213.144 232.103L215.477 237.261Z" fill="#F9A825"/>
<path d="M230.804 237.604C219.899 245.471 207.609 251.208 194.579 254.513L192.246 249.355C205.162 245.735 217.399 240.023 228.47 232.446L230.804 237.604Z" fill="#F9A825"/>
<path d="M236.496 242.028C225.591 249.895 213.301 255.631 200.271 258.937L197.938 253.779C210.854 250.159 223.09 244.447 234.162 236.87L236.496 242.028Z" fill="#F9A825"/>
<path d="M208.092 254.379H206.205V256.268H208.092V254.379Z" fill="#00BF71"/>
<path d="M197.215 252.119L198.699 249.93L197.449 249.082L195.966 251.27L197.215 252.119Z" fill="#00BF71"/>
<path d="M173.175 249.583L170.988 248.099L170.141 249.349L172.327 250.833L173.175 249.583Z" fill="#00BF71"/>
<path d="M187.021 249.474L188.505 247.285L187.255 246.437L185.771 248.625L187.021 249.474Z" fill="#00BF71"/>
<path d="M209.225 243.421H207.337V245.31H209.225V243.421Z" fill="#00BF71"/>
<path d="M200.359 242.404L198.173 240.919L197.325 242.169L199.512 243.654L200.359 242.404Z" fill="#00BF71"/>
<path d="M224.402 243.05L225.886 240.861L224.636 240.012L223.152 242.201L224.402 243.05Z" fill="#00BF71"/>
<path d="M178.083 238.247L175.896 236.763L175.049 238.013L177.236 239.497L178.083 238.247Z" fill="#00BF71"/>
<path d="M188.837 230.951H186.949V232.84H188.837V230.951Z" fill="#00BF71"/>
<path d="M164.295 230.951H162.407V232.84H164.295V230.951Z" fill="#00BF71"/>
<path d="M125.931 157.277C125.301 156.043 124.92 154.696 124.811 153.314C124.701 151.932 124.865 150.541 125.293 149.223C125.72 147.904 126.404 146.682 127.303 145.628C128.203 144.574 129.301 143.707 130.536 143.078C131.77 142.449 133.117 142.07 134.498 141.962C135.879 141.853 137.268 142.019 138.585 142.448C139.902 142.878 141.122 143.563 142.174 144.464C143.227 145.366 144.091 146.466 144.719 147.702L168.187 193.823C168.817 195.058 169.197 196.405 169.307 197.787C169.416 199.169 169.252 200.559 168.825 201.878C168.397 203.197 167.714 204.418 166.814 205.472C165.915 206.527 164.816 207.393 163.582 208.022C162.347 208.652 161.001 209.031 159.62 209.139C158.239 209.247 156.85 209.082 155.533 208.652C154.215 208.223 152.996 207.538 151.943 206.636C150.891 205.735 150.026 204.635 149.399 203.399L125.931 157.277Z" fill="#FF6584"/>
<path opacity="0.2" d="M128.548 162.422L127.465 160.293C132.87 156.09 139.218 152.998 146.253 150.718L147.336 152.846C139.722 154.433 133.245 157.37 128.548 162.422Z" fill="black"/>
<path opacity="0.2" d="M133.603 172.356L132.52 170.227C137.925 166.023 144.273 162.932 151.308 160.651L152.391 162.78C144.777 164.367 138.3 167.303 133.603 172.356Z" fill="black"/>
<path opacity="0.2" d="M138.657 182.289L137.574 180.161C142.98 175.957 149.327 172.866 156.362 170.585L157.445 172.714C149.832 174.301 143.354 177.237 138.657 182.289Z" fill="black"/>
<path opacity="0.2" d="M143.712 192.223L142.629 190.094C148.034 185.891 154.382 182.799 161.417 180.519L162.5 182.648C154.886 184.234 148.408 187.171 143.712 192.223Z" fill="black"/>
<path opacity="0.2" d="M148.767 202.157L147.684 200.028C153.089 195.825 159.437 192.733 166.472 190.453L167.555 192.581C159.941 194.168 153.463 197.105 148.767 202.157Z" fill="black"/>
<path d="M108.324 174.544C107.694 173.309 107.314 171.962 107.204 170.58C107.095 169.198 107.259 167.808 107.687 166.489C108.114 165.171 108.797 163.949 109.697 162.895C110.597 161.841 111.695 160.974 112.929 160.345C114.164 159.716 115.51 159.337 116.891 159.229C118.272 159.12 119.661 159.286 120.978 159.715C122.295 160.144 123.515 160.829 124.567 161.731C125.62 162.632 126.484 163.732 127.112 164.968L150.58 211.089C151.845 213.582 152.07 216.476 151.204 219.135C150.339 221.794 148.454 224 145.965 225.269C143.475 226.538 140.584 226.765 137.926 225.902C135.269 225.039 133.062 223.155 131.792 220.665L108.324 174.544Z" fill="#FF6584"/>
<path opacity="0.2" d="M110.942 179.688L109.859 177.559C115.264 173.356 121.612 170.264 128.647 167.984L129.73 170.112C122.116 171.699 115.638 174.636 110.942 179.688Z" fill="black"/>
<path opacity="0.2" d="M115.996 189.622L114.913 187.493C120.319 183.289 126.666 180.198 133.701 177.917L134.784 180.046C127.17 181.633 120.693 184.569 115.996 189.622Z" fill="black"/>
<path opacity="0.2" d="M121.051 199.555L119.968 197.427C125.374 193.223 131.721 190.132 138.756 187.851L139.839 189.98C132.225 191.567 125.748 194.503 121.051 199.555Z" fill="black"/>
<path opacity="0.2" d="M126.106 209.489L125.022 207.36C130.428 203.157 136.776 200.065 143.81 197.785L144.894 199.914C137.28 201.5 130.802 204.437 126.106 209.489Z" fill="black"/>
<path opacity="0.2" d="M131.16 219.423L130.077 217.294C135.482 213.091 141.83 209.999 148.865 207.719L149.948 209.847C142.334 211.434 135.857 214.371 131.16 219.423Z" fill="black"/>
<path d="M140.976 212.526C141.861 212.526 142.578 211.809 142.578 210.924C142.578 210.039 141.861 209.321 140.976 209.321C140.092 209.321 139.375 210.039 139.375 210.924C139.375 211.809 140.092 212.526 140.976 212.526Z" fill="#3F3D56"/>
<path d="M139.662 167.072C140.546 167.072 141.263 166.355 141.263 165.47C141.263 164.584 140.546 163.867 139.662 163.867C138.778 163.867 138.061 164.584 138.061 165.47C138.061 166.355 138.778 167.072 139.662 167.072Z" fill="#3F3D56"/>
<path d="M243.206 193.164L243.28 193.164C245.808 193.185 248.283 192.443 250.384 191.035C252.484 189.627 254.111 187.619 255.054 185.271C256.992 180.368 257.968 175.137 257.931 169.864C257.799 147.547 239.657 129.238 217.359 128.929C207.863 128.796 198.613 131.954 191.177 137.866C183.742 143.779 178.577 152.083 176.561 161.371C174.544 170.659 175.798 180.359 180.111 188.828C184.424 197.296 191.53 204.011 200.225 207.834C202.522 208.852 205.074 209.152 207.545 208.693C210.015 208.235 212.29 207.04 214.07 205.265C217.889 201.423 222.429 198.376 227.43 196.299C232.43 194.222 237.792 193.157 243.206 193.164Z" fill="#E6E6E6"/>
<path d="M214.511 219.993C217.847 219.993 220.552 217.286 220.552 213.947C220.552 210.608 217.847 207.901 214.511 207.901C211.175 207.901 208.47 210.608 208.47 213.947C208.47 217.286 211.175 219.993 214.511 219.993Z" fill="#FF6584"/>
<path opacity="0.2" d="M219.042 214.325C219.042 215.527 218.564 216.681 217.715 217.531C216.865 218.381 215.713 218.859 214.511 218.859C213.309 218.859 212.157 218.381 211.307 217.531C210.458 216.681 209.98 215.527 209.98 214.325" fill="black"/>
<path d="M216.399 217.724C216.607 217.724 216.776 217.471 216.776 217.158C216.776 216.845 216.607 216.592 216.399 216.592C216.19 216.592 216.021 216.845 216.021 217.158C216.021 217.471 216.19 217.724 216.399 217.724Z" fill="#FF6584"/>
<path d="M214.511 216.591C214.72 216.591 214.889 216.337 214.889 216.024C214.889 215.712 214.72 215.458 214.511 215.458C214.303 215.458 214.134 215.712 214.134 216.024C214.134 216.337 214.303 216.591 214.511 216.591Z" fill="#FF6584"/>
<path d="M211.868 215.835C212.077 215.835 212.246 215.581 212.246 215.269C212.246 214.956 212.077 214.702 211.868 214.702C211.66 214.702 211.49 214.956 211.49 215.269C211.49 215.581 211.66 215.835 211.868 215.835Z" fill="#FF6584"/>
<path opacity="0.2" d="M209.98 213.569C209.98 212.366 210.458 211.213 211.307 210.362C212.157 209.512 213.309 209.034 214.511 209.034C215.713 209.034 216.865 209.512 217.715 210.362C218.564 211.213 219.042 212.366 219.042 213.569" fill="black"/>
<path d="M216.776 213.568C216.985 213.568 217.154 213.314 217.154 213.001C217.154 212.689 216.985 212.435 216.776 212.435C216.568 212.435 216.399 212.689 216.399 213.001C216.399 213.314 216.568 213.568 216.776 213.568Z" fill="#FF6584"/>
<path d="M212.246 212.434C212.454 212.434 212.623 212.181 212.623 211.868C212.623 211.555 212.454 211.301 212.246 211.301C212.037 211.301 211.868 211.555 211.868 211.868C211.868 212.181 212.037 212.434 212.246 212.434Z" fill="#FF6584"/>
<path d="M214.511 211.678C214.72 211.678 214.889 211.425 214.889 211.112C214.889 210.799 214.72 210.546 214.511 210.546C214.303 210.546 214.134 210.799 214.134 211.112C214.134 211.425 214.303 211.678 214.511 211.678Z" fill="#FF6584"/>
<path d="M201.01 195.144C201.894 195.144 202.611 194.427 202.611 193.542C202.611 192.656 201.894 191.939 201.01 191.939C200.125 191.939 199.408 192.656 199.408 193.542C199.408 194.427 200.125 195.144 201.01 195.144Z" fill="#3F3D56"/>
<path d="M226.593 203.744C229.93 203.744 232.634 201.037 232.634 197.698C232.634 194.359 229.93 191.652 226.593 191.652C223.257 191.652 220.552 194.359 220.552 197.698C220.552 201.037 223.257 203.744 226.593 203.744Z" fill="#FF6584"/>
<path opacity="0.2" d="M231.124 198.076C231.124 199.279 230.647 200.432 229.797 201.282C228.947 202.133 227.795 202.61 226.593 202.61C225.392 202.61 224.239 202.133 223.39 201.282C222.54 200.432 222.062 199.279 222.062 198.076" fill="black"/>
<path d="M228.481 201.476C228.69 201.476 228.859 201.222 228.859 200.909C228.859 200.597 228.69 200.343 228.481 200.343C228.273 200.343 228.104 200.597 228.104 200.909C228.104 201.222 228.273 201.476 228.481 201.476Z" fill="#FF6584"/>
<path d="M238.675 212.057C242.012 212.057 244.716 209.35 244.716 206.011C244.716 202.672 242.012 199.965 238.675 199.965C235.339 199.965 232.634 202.672 232.634 206.011C232.634 209.35 235.339 212.057 238.675 212.057Z" fill="#1BAC4B"/>
<path opacity="0.2" d="M243.206 206.389C243.206 207.592 242.729 208.745 241.879 209.596C241.029 210.446 239.877 210.924 238.675 210.924C237.474 210.924 236.321 210.446 235.472 209.596C234.622 208.745 234.145 207.592 234.145 206.389" fill="black"/>
<path d="M240.563 209.789C240.772 209.789 240.941 209.536 240.941 209.223C240.941 208.91 240.772 208.656 240.563 208.656C240.355 208.656 240.186 208.91 240.186 209.223C240.186 209.536 240.355 209.789 240.563 209.789Z" fill="#1BAC4B"/>
<path d="M238.675 208.655C238.884 208.655 239.053 208.402 239.053 208.089C239.053 207.776 238.884 207.523 238.675 207.523C238.467 207.523 238.298 207.776 238.298 208.089C238.298 208.402 238.467 208.655 238.675 208.655Z" fill="#1BAC4B"/>
<path d="M236.032 207.9C236.241 207.9 236.41 207.646 236.41 207.333C236.41 207.021 236.241 206.767 236.032 206.767C235.824 206.767 235.655 207.021 235.655 207.333C235.655 207.646 235.824 207.9 236.032 207.9Z" fill="#1BAC4B"/>
<path opacity="0.2" d="M234.145 205.633C234.145 204.431 234.622 203.277 235.472 202.427C236.321 201.577 237.474 201.099 238.675 201.099C239.877 201.099 241.029 201.577 241.879 202.427C242.729 203.277 243.206 204.431 243.206 205.633" fill="black"/>
<path d="M240.941 205.632C241.149 205.632 241.318 205.379 241.318 205.066C241.318 204.753 241.149 204.5 240.941 204.5C240.732 204.5 240.563 204.753 240.563 205.066C240.563 205.379 240.732 205.632 240.941 205.632Z" fill="#1BAC4B"/>
<path d="M236.41 204.499C236.618 204.499 236.787 204.245 236.787 203.933C236.787 203.62 236.618 203.366 236.41 203.366C236.201 203.366 236.032 203.62 236.032 203.933C236.032 204.245 236.201 204.499 236.41 204.499Z" fill="#1BAC4B"/>
<path d="M238.675 203.743C238.884 203.743 239.053 203.49 239.053 203.177C239.053 202.864 238.884 202.61 238.675 202.61C238.467 202.61 238.298 202.864 238.298 203.177C238.298 203.49 238.467 203.743 238.675 203.743Z" fill="#1BAC4B"/>
<path d="M208.47 212.813C211.806 212.813 214.511 210.106 214.511 206.767C214.511 203.428 211.806 200.721 208.47 200.721C205.134 200.721 202.429 203.428 202.429 206.767C202.429 210.106 205.134 212.813 208.47 212.813Z" fill="#1BAC4B"/>
<path opacity="0.2" d="M213.001 207.145C213.001 208.348 212.523 209.501 211.674 210.351C210.824 211.202 209.672 211.679 208.47 211.679C207.268 211.679 206.116 211.202 205.266 210.351C204.417 209.501 203.939 208.348 203.939 207.145" fill="black"/>
<path d="M210.358 210.545C210.566 210.545 210.735 210.291 210.735 209.978C210.735 209.666 210.566 209.412 210.358 209.412C210.149 209.412 209.98 209.666 209.98 209.978C209.98 210.291 210.149 210.545 210.358 210.545Z" fill="#1BAC4B"/>
<path d="M208.47 209.411C208.678 209.411 208.847 209.158 208.847 208.845C208.847 208.532 208.678 208.279 208.47 208.279C208.261 208.279 208.092 208.532 208.092 208.845C208.092 209.158 208.261 209.411 208.47 209.411Z" fill="#1BAC4B"/>
<path d="M205.827 208.655C206.036 208.655 206.205 208.402 206.205 208.089C206.205 207.776 206.036 207.523 205.827 207.523C205.618 207.523 205.449 207.776 205.449 208.089C205.449 208.402 205.618 208.655 205.827 208.655Z" fill="#1BAC4B"/>
<path opacity="0.2" d="M203.939 206.389C203.939 205.187 204.417 204.033 205.266 203.183C206.116 202.333 207.268 201.855 208.47 201.855C209.672 201.855 210.824 202.333 211.674 203.183C212.523 204.033 213.001 205.187 213.001 206.389" fill="black"/>
<path d="M210.735 206.388C210.944 206.388 211.113 206.135 211.113 205.822C211.113 205.509 210.944 205.255 210.735 205.255C210.527 205.255 210.358 205.509 210.358 205.822C210.358 206.135 210.527 206.388 210.735 206.388Z" fill="#1BAC4B"/>
<path d="M206.204 205.255C206.413 205.255 206.582 205.001 206.582 204.688C206.582 204.375 206.413 204.122 206.204 204.122C205.996 204.122 205.827 204.375 205.827 204.688C205.827 205.001 205.996 205.255 206.204 205.255Z" fill="#1BAC4B"/>
<path d="M222.062 215.458C225.399 215.458 228.103 212.751 228.103 209.412C228.103 206.073 225.399 203.366 222.062 203.366C218.726 203.366 216.021 206.073 216.021 209.412C216.021 212.751 218.726 215.458 222.062 215.458Z" fill="#1BAC4B"/>
<path opacity="0.2" d="M226.593 209.79C226.593 210.386 226.476 210.975 226.248 211.525C226.021 212.076 225.687 212.575 225.266 212.996C224.845 213.418 224.346 213.752 223.796 213.979C223.246 214.207 222.657 214.325 222.062 214.325C221.467 214.325 220.878 214.207 220.328 213.979C219.779 213.752 219.279 213.418 218.859 212.996C218.438 212.575 218.104 212.076 217.876 211.525C217.649 210.975 217.531 210.386 217.531 209.79" fill="black"/>
<path d="M223.95 213.19C224.159 213.19 224.328 212.936 224.328 212.624C224.328 212.311 224.159 212.057 223.95 212.057C223.742 212.057 223.573 212.311 223.573 212.624C223.573 212.936 223.742 213.19 223.95 213.19Z" fill="#1BAC4B"/>
<path d="M222.062 212.056C222.271 212.056 222.44 211.803 222.44 211.49C222.44 211.177 222.271 210.924 222.062 210.924C221.854 210.924 221.685 211.177 221.685 211.49C221.685 211.803 221.854 212.056 222.062 212.056Z" fill="#1BAC4B"/>
<path d="M219.42 211.301C219.628 211.301 219.797 211.047 219.797 210.734C219.797 210.421 219.628 210.168 219.42 210.168C219.211 210.168 219.042 210.421 219.042 210.734C219.042 211.047 219.211 211.301 219.42 211.301Z" fill="#1BAC4B"/>
<path d="M231.502 221.882C234.838 221.882 237.543 219.175 237.543 215.836C237.543 212.497 234.838 209.79 231.502 209.79C228.165 209.79 225.46 212.497 225.46 215.836C225.46 219.175 228.165 221.882 231.502 221.882Z" fill="#FF6584"/>
<path opacity="0.2" d="M236.032 216.214C236.032 217.417 235.555 218.57 234.705 219.42C233.856 220.271 232.703 220.748 231.502 220.748C230.3 220.748 229.147 220.271 228.298 219.42C227.448 218.57 226.971 217.417 226.971 216.214" fill="black"/>
<path d="M233.389 219.614C233.598 219.614 233.767 219.36 233.767 219.047C233.767 218.735 233.598 218.481 233.389 218.481C233.181 218.481 233.012 218.735 233.012 219.047C233.012 219.36 233.181 219.614 233.389 219.614Z" fill="#FF6584"/>
<path d="M231.502 218.48C231.71 218.48 231.879 218.227 231.879 217.914C231.879 217.601 231.71 217.348 231.502 217.348C231.293 217.348 231.124 217.601 231.124 217.914C231.124 218.227 231.293 218.48 231.502 218.48Z" fill="#FF6584"/>
<path d="M228.859 217.724C229.067 217.724 229.236 217.471 229.236 217.158C229.236 216.845 229.067 216.592 228.859 216.592C228.65 216.592 228.481 216.845 228.481 217.158C228.481 217.471 228.65 217.724 228.859 217.724Z" fill="#FF6584"/>
<path opacity="0.2" d="M226.971 215.458C226.971 214.256 227.448 213.102 228.298 212.252C229.147 211.401 230.3 210.924 231.502 210.924C232.703 210.924 233.856 211.401 234.705 212.252C235.555 213.102 236.032 214.256 236.032 215.458" fill="black"/>
<path d="M233.767 215.457C233.975 215.457 234.145 215.204 234.145 214.891C234.145 214.578 233.975 214.324 233.767 214.324C233.558 214.324 233.389 214.578 233.389 214.891C233.389 215.204 233.558 215.457 233.767 215.457Z" fill="#FF6584"/>
<path d="M229.236 214.324C229.445 214.324 229.614 214.07 229.614 213.757C229.614 213.444 229.445 213.191 229.236 213.191C229.028 213.191 228.859 213.444 228.859 213.757C228.859 214.07 229.028 214.324 229.236 214.324Z" fill="#FF6584"/>
<path d="M231.502 213.568C231.71 213.568 231.879 213.314 231.879 213.001C231.879 212.689 231.71 212.435 231.502 212.435C231.293 212.435 231.124 212.689 231.124 213.001C231.124 213.314 231.293 213.568 231.502 213.568Z" fill="#FF6584"/>
<path opacity="0.2" d="M217.531 209.034C217.531 208.439 217.649 207.849 217.876 207.299C218.104 206.749 218.438 206.249 218.859 205.828C219.279 205.407 219.779 205.073 220.328 204.845C220.878 204.617 221.467 204.5 222.062 204.5C222.657 204.5 223.246 204.617 223.796 204.845C224.346 205.073 224.845 205.407 225.266 205.828C225.687 206.249 226.021 206.749 226.248 207.299C226.476 207.849 226.593 208.439 226.593 209.034" fill="black"/>
<path d="M224.328 209.033C224.536 209.033 224.705 208.78 224.705 208.467C224.705 208.154 224.536 207.901 224.328 207.901C224.119 207.901 223.95 208.154 223.95 208.467C223.95 208.78 224.119 209.033 224.328 209.033Z" fill="#1BAC4B"/>
<path d="M219.797 207.9C220.006 207.9 220.175 207.646 220.175 207.333C220.175 207.021 220.006 206.767 219.797 206.767C219.588 206.767 219.419 207.021 219.419 207.333C219.419 207.646 219.588 207.9 219.797 207.9Z" fill="#1BAC4B"/>
<path d="M222.062 207.144C222.271 207.144 222.44 206.89 222.44 206.578C222.44 206.265 222.271 206.011 222.062 206.011C221.854 206.011 221.685 206.265 221.685 206.578C221.685 206.89 221.854 207.144 222.062 207.144Z" fill="#1BAC4B"/>
<path d="M208.47 204.499C208.678 204.499 208.847 204.245 208.847 203.933C208.847 203.62 208.678 203.366 208.47 203.366C208.261 203.366 208.092 203.62 208.092 203.933C208.092 204.245 208.261 204.499 208.47 204.499Z" fill="#1BAC4B"/>
<path d="M226.593 200.342C226.802 200.342 226.971 200.089 226.971 199.776C226.971 199.463 226.802 199.21 226.593 199.21C226.385 199.21 226.216 199.463 226.216 199.776C226.216 200.089 226.385 200.342 226.593 200.342Z" fill="#FF6584"/>
<path d="M223.95 199.586C224.159 199.586 224.328 199.333 224.328 199.02C224.328 198.707 224.159 198.454 223.95 198.454C223.742 198.454 223.573 198.707 223.573 199.02C223.573 199.333 223.742 199.586 223.95 199.586Z" fill="#FF6584"/>
<path opacity="0.2" d="M222.062 197.32C222.062 196.118 222.54 194.964 223.39 194.114C224.239 193.263 225.392 192.786 226.593 192.786C227.795 192.786 228.947 193.263 229.797 194.114C230.647 194.964 231.124 196.118 231.124 197.32" fill="black"/>
<path d="M228.859 197.319C229.067 197.319 229.236 197.066 229.236 196.753C229.236 196.44 229.067 196.187 228.859 196.187C228.65 196.187 228.481 196.44 228.481 196.753C228.481 197.066 228.65 197.319 228.859 197.319Z" fill="#FF6584"/>
<path d="M224.328 196.186C224.536 196.186 224.705 195.932 224.705 195.619C224.705 195.306 224.536 195.053 224.328 195.053C224.119 195.053 223.95 195.306 223.95 195.619C223.95 195.932 224.119 196.186 224.328 196.186Z" fill="#FF6584"/>
<path d="M226.593 195.43C226.802 195.43 226.971 195.176 226.971 194.864C226.971 194.551 226.802 194.297 226.593 194.297C226.385 194.297 226.216 194.551 226.216 194.864C226.216 195.176 226.385 195.43 226.593 195.43Z" fill="#FF6584"/>
<path d="M153.814 194.388C154.698 194.388 155.415 193.671 155.415 192.786C155.415 191.901 154.698 191.183 153.814 191.183C152.929 191.183 152.212 191.901 152.212 192.786C152.212 193.671 152.929 194.388 153.814 194.388Z" fill="#3F3D56"/>
<path d="M129.272 189.476C130.156 189.476 130.873 188.758 130.873 187.873C130.873 186.988 130.156 186.271 129.272 186.271C128.388 186.271 127.671 186.988 127.671 187.873C127.671 188.758 128.388 189.476 129.272 189.476Z" fill="#3F3D56"/>
<path d="M192.521 165.561C193.406 165.561 194.123 164.843 194.123 163.958C194.123 163.073 193.406 162.356 192.521 162.356C191.637 162.356 190.92 163.073 190.92 163.958C190.92 164.843 191.637 165.561 192.521 165.561Z" fill="#3F3D56"/>
<path d="M222.062 180.694C229.569 180.694 235.655 174.603 235.655 167.09C235.655 159.577 229.569 153.487 222.062 153.487C214.556 153.487 208.47 159.577 208.47 167.09C208.47 174.603 214.556 180.694 222.062 180.694Z" fill="#F9A825"/>
<path d="M201.055 148.953C201.939 148.953 202.656 148.235 202.656 147.35C202.656 146.465 201.939 145.747 201.055 145.747C200.171 145.747 199.454 146.465 199.454 147.35C199.454 148.235 200.171 148.953 201.055 148.953Z" fill="#3F3D56"/>
<path d="M232.725 145.643C233.61 145.643 234.327 144.925 234.327 144.04C234.327 143.155 233.61 142.438 232.725 142.438C231.841 142.438 231.124 143.155 231.124 144.04C231.124 144.925 231.841 145.643 232.725 145.643Z" fill="#3F3D56"/>
<circle cx="350" cy="59" r="14" fill="url(#paint7_linear_75_2947)" fill-opacity="0.12"/>
<circle cx="60" cy="34" r="18" fill="url(#paint8_linear_75_2947)" fill-opacity="0.12"/>
<circle cx="174" cy="20" r="6" fill="url(#paint9_linear_75_2947)" fill-opacity="0.12"/>
<circle cx="282" cy="7" r="7" fill="url(#paint10_linear_75_2947)" fill-opacity="0.12"/>
<defs>
<linearGradient id="paint0_linear_75_2947" x1="260" y1="427" x2="238.582" y2="420.79" gradientUnits="userSpaceOnUse">
<stop stop-color="#1BAC4B"/>
<stop offset="1" stop-color="#46D375"/>
</linearGradient>
<linearGradient id="paint1_linear_75_2947" x1="130" y1="418" x2="82.4036" y2="404.2" gradientUnits="userSpaceOnUse">
<stop stop-color="#1BAC4B"/>
<stop offset="1" stop-color="#46D375"/>
</linearGradient>
<linearGradient id="paint2_linear_75_2947" x1="351" y1="388" x2="327.202" y2="381.1" gradientUnits="userSpaceOnUse">
<stop stop-color="#1BAC4B"/>
<stop offset="1" stop-color="#46D375"/>
</linearGradient>
<linearGradient id="paint3_linear_75_2947" x1="37" y1="348" x2="29.8605" y2="345.93" gradientUnits="userSpaceOnUse">
<stop stop-color="#1BAC4B"/>
<stop offset="1" stop-color="#46D375"/>
</linearGradient>
<linearGradient id="paint4_linear_75_2947" x1="367" y1="163" x2="355.101" y2="159.55" gradientUnits="userSpaceOnUse">
<stop stop-color="#1BAC4B"/>
<stop offset="1" stop-color="#46D375"/>
</linearGradient>
<linearGradient id="paint5_linear_75_2947" x1="12" y1="153" x2="-2.27892" y2="148.86" gradientUnits="userSpaceOnUse">
<stop stop-color="#1BAC4B"/>
<stop offset="1" stop-color="#46D375"/>
</linearGradient>
<linearGradient id="paint6_linear_75_2947" x1="61" y1="93" x2="53.8605" y2="90.93" gradientUnits="userSpaceOnUse">
<stop stop-color="#1BAC4B"/>
<stop offset="1" stop-color="#46D375"/>
</linearGradient>
<linearGradient id="paint7_linear_75_2947" x1="364" y1="73" x2="330.683" y2="63.3399" gradientUnits="userSpaceOnUse">
<stop stop-color="#1BAC4B"/>
<stop offset="1" stop-color="#46D375"/>
</linearGradient>
<linearGradient id="paint8_linear_75_2947" x1="78" y1="52" x2="35.1632" y2="39.5799" gradientUnits="userSpaceOnUse">
<stop stop-color="#1BAC4B"/>
<stop offset="1" stop-color="#46D375"/>
</linearGradient>
<linearGradient id="paint9_linear_75_2947" x1="180" y1="26" x2="165.721" y2="21.86" gradientUnits="userSpaceOnUse">
<stop stop-color="#1BAC4B"/>
<stop offset="1" stop-color="#46D375"/>
</linearGradient>
<linearGradient id="paint10_linear_75_2947" x1="289" y1="14" x2="272.341" y2="9.16995" gradientUnits="userSpaceOnUse">
<stop stop-color="#1BAC4B"/>
<stop offset="1" stop-color="#46D375"/>
</linearGradient>
</defs>
</svg>
