<svg width="367" height="452" viewBox="0 0 367 452" fill="none" xmlns="http://www.w3.org/2000/svg">
<circle cx="107" cy="439" r="10" fill="url(#paint0_linear_75_2876)" fill-opacity="0.12"/>
<circle cx="305" cy="432" r="20" fill="url(#paint1_linear_75_2876)" fill-opacity="0.12"/>
<circle cx="205" cy="419" r="7" fill="url(#paint2_linear_75_2876)" fill-opacity="0.12"/>
<circle cx="16" cy="376" r="4" fill="url(#paint3_linear_75_2876)" fill-opacity="0.12"/>
<circle cx="362" cy="168" r="5" fill="url(#paint4_linear_75_2876)" fill-opacity="0.12"/>
<circle cx="6" cy="157" r="6" fill="url(#paint5_linear_75_2876)" fill-opacity="0.12"/>
<circle cx="58" cy="100" r="3" fill="url(#paint6_linear_75_2876)" fill-opacity="0.12"/>
<circle cx="350" cy="69" r="14" fill="url(#paint7_linear_75_2876)" fill-opacity="0.12"/>
<g clip-path="url(#clip0_75_2876)">
<path d="M320.164 342.015C321.3 342.086 321.927 340.674 321.068 339.851L320.982 339.511C320.994 339.483 321.005 339.456 321.016 339.429C322.165 336.688 326.059 336.707 327.198 339.452C328.209 341.888 329.496 344.328 329.813 346.904C329.955 348.041 329.891 349.199 329.639 350.315C332.008 345.138 333.255 339.485 333.255 333.8C333.255 332.371 333.177 330.943 333.017 329.518C332.885 328.352 332.704 327.194 332.47 326.046C331.202 319.842 328.456 313.933 324.496 308.998C322.593 307.956 321.005 306.329 320.046 304.378C319.702 303.675 319.432 302.918 319.304 302.147C319.52 302.175 320.121 298.874 319.957 298.672C320.259 298.213 320.8 297.985 321.129 297.538C322.769 295.314 325.029 295.702 326.208 298.725C328.728 299.997 328.752 302.107 327.206 304.137C326.223 305.428 326.087 307.175 325.224 308.557C325.313 308.671 325.405 308.781 325.494 308.894C327.123 310.984 328.531 313.23 329.718 315.589C329.382 312.967 329.878 309.808 330.722 307.772C331.684 305.451 333.485 303.497 335.072 301.492C336.978 299.083 340.886 300.134 341.222 303.188C341.225 303.218 341.229 303.247 341.232 303.277C340.996 303.41 340.765 303.551 340.54 303.7C339.253 304.551 339.698 306.547 341.222 306.782L341.257 306.787C341.171 307.637 341.026 308.479 340.813 309.307C342.848 317.182 338.454 320.051 332.179 320.18C332.04 320.251 331.905 320.322 331.766 320.389C332.402 322.18 332.91 324.017 333.287 325.879C333.624 327.524 333.858 329.187 333.99 330.857C334.153 332.964 334.139 335.082 333.961 337.186L333.972 337.111C334.423 334.794 335.68 332.63 337.506 331.131C340.226 328.896 344.068 328.073 347.002 326.276C348.414 325.412 350.224 326.529 349.977 328.167L349.965 328.246C349.528 328.423 349.102 328.629 348.69 328.86C348.455 328.993 348.224 329.135 347.998 329.284C346.712 330.135 347.156 332.13 348.681 332.366L348.715 332.371C348.74 332.375 348.761 332.378 348.786 332.382C348.037 334.162 346.993 335.814 345.686 337.239C344.413 344.114 338.946 344.767 333.098 342.764H333.095C332.456 345.55 331.521 348.272 330.321 350.866H320.412C320.376 350.756 320.344 350.642 320.312 350.532C321.229 350.589 322.152 350.536 323.054 350.369C322.319 349.466 321.584 348.556 320.849 347.654C320.831 347.636 320.817 347.618 320.803 347.601C320.43 347.139 320.053 346.68 319.68 346.218L319.68 346.218C319.657 344.8 319.827 343.386 320.163 342.015L320.164 342.015V342.015Z" fill="#F2F2F2"/>
<path d="M137.847 350.345C137.847 350.708 138.138 350.999 138.501 350.999H349.269C349.632 350.999 349.923 350.708 349.923 350.345C349.923 349.982 349.632 349.691 349.269 349.691H138.501C138.138 349.691 137.847 349.982 137.847 350.345Z" fill="#CCCCCC"/>
<path d="M169.829 350.721H72.8144C60.9852 350.721 51.3613 341.093 51.3613 329.258V120.672C51.3613 108.837 60.9852 99.209 72.8144 99.209H169.829C181.658 99.209 191.282 108.837 191.282 120.672V329.258C191.282 341.093 181.658 350.721 169.829 350.721Z" fill="#3F3D56"/>
<path d="M191.282 175.934C190.781 175.934 190.374 176.341 190.374 176.842V205.897C190.374 206.398 190.781 206.805 191.282 206.805C191.782 206.805 192.189 206.398 192.189 205.897V176.842C192.189 176.341 191.782 175.934 191.282 175.934Z" fill="#3F3D56"/>
<path d="M189.24 120.672V329.254C189.24 339.556 181.226 347.982 171.093 348.635H171.088C170.939 348.644 170.789 348.654 170.635 348.658C170.367 348.672 170.099 348.676 169.827 348.676C169.827 348.676 168.828 348.604 167.004 348.467C165.162 348.331 162.48 348.127 159.136 347.859C158.133 347.782 157.075 347.696 155.959 347.605C153.736 347.423 151.294 347.223 148.676 346.996C147.632 346.91 146.552 346.815 145.45 346.72C139.814 346.234 133.501 345.666 126.844 345.022C125.719 344.917 124.585 344.808 123.441 344.695C123.141 344.663 122.837 344.636 122.533 344.604C117.787 344.136 53.4036 331.688 53.4036 329.254V120.672C53.4036 109.944 62.0935 101.25 72.8165 101.25H84.4061C86.2576 101.25 87.746 102.694 87.9048 104.542C87.9184 104.664 87.932 104.787 87.9547 104.909C88.2905 106.766 89.9922 108.06 91.8799 108.06H150.763C152.651 108.06 154.353 106.766 154.689 104.909C154.711 104.787 154.725 104.664 154.738 104.542C154.897 102.694 156.386 101.25 158.237 101.25H169.827C180.55 101.25 189.24 109.944 189.24 120.672Z" fill="white"/>
<path d="M50.9076 154.142C50.407 154.142 50 154.549 50 155.05V162.314C50 162.815 50.407 163.222 50.9076 163.222C51.4081 163.222 51.8151 162.815 51.8151 162.314V155.05C51.8151 154.549 51.4081 154.142 50.9076 154.142Z" fill="#3F3D56"/>
<path d="M50.9076 175.934C50.407 175.934 50 176.341 50 176.842V190.916C50 191.416 50.407 191.824 50.9076 191.824C51.4081 191.824 51.8151 191.416 51.8151 190.916V176.842C51.8151 176.341 51.4081 175.934 50.9076 175.934Z" fill="#3F3D56"/>
<path d="M50.9076 195.909C50.407 195.909 50 196.317 50 196.817V210.891C50 211.392 50.407 211.799 50.9076 211.799C51.4081 211.799 51.8151 211.392 51.8151 210.891V196.817C51.8151 196.317 51.4081 195.909 50.9076 195.909Z" fill="#3F3D56"/>
<path d="M84.0902 104.43H66.7338C66.6396 104.43 66.5632 104.506 66.5632 104.601V106.529C66.5632 106.624 66.6396 106.7 66.7338 106.7H84.0902C84.1845 106.7 84.2608 106.624 84.2608 106.529V104.601C84.2608 104.506 84.1845 104.43 84.0902 104.43Z" fill="#E6E6E6"/>
<path d="M161.105 106.7C162.107 106.7 162.92 105.887 162.92 104.884C162.92 103.881 162.107 103.068 161.105 103.068C160.102 103.068 159.29 103.881 159.29 104.884C159.29 105.887 160.102 106.7 161.105 106.7Z" fill="#E6E6E6"/>
<path d="M166.097 106.7C167.099 106.7 167.912 105.887 167.912 104.884C167.912 103.881 167.099 103.068 166.097 103.068C165.094 103.068 164.281 103.881 164.281 104.884C164.281 105.887 165.094 106.7 166.097 106.7Z" fill="#E6E6E6"/>
<path d="M171.088 106.7C172.091 106.7 172.903 105.887 172.903 104.884C172.903 103.881 172.091 103.068 171.088 103.068C170.086 103.068 169.273 103.881 169.273 104.884C169.273 105.887 170.086 106.7 171.088 106.7Z" fill="#E6E6E6"/>
<path d="M121.371 312.498C138.985 312.498 153.264 298.213 153.264 280.59C153.264 262.968 138.985 248.682 121.371 248.682C103.756 248.682 89.4771 262.968 89.4771 280.59C89.4771 298.213 103.756 312.498 121.371 312.498Z" fill="#1BAC4B"/>
<path d="M126.44 270.172C123.748 270.282 120.705 270.467 118.716 272.533C116.987 274.329 116.608 276.992 118.361 278.909C120.118 280.831 122.851 281.091 124.876 282.59C127.255 284.35 126.907 287.832 124.605 289.5C121.891 291.468 118.386 290.55 115.905 288.679C115.269 288.199 114.652 289.273 115.28 289.748C117.503 291.424 120.404 292.358 123.153 291.556C125.634 290.831 127.557 288.808 127.753 286.175C127.846 284.919 127.489 283.644 126.708 282.652C125.884 281.605 124.697 280.961 123.496 280.436C121.43 279.534 117.873 278.366 118.473 275.428C119.202 271.866 123.535 271.529 126.44 271.409C127.233 271.377 127.237 270.139 126.44 270.172L126.44 270.172Z" fill="white"/>
<path d="M121.446 268.487L121.328 295.66C121.324 296.457 122.561 296.458 122.565 295.66L122.684 268.487C122.687 267.69 121.45 267.689 121.446 268.487Z" fill="white"/>
<path d="M159.587 227.226H82.6021C81.3893 227.226 80.4026 226.239 80.4026 225.026C80.4026 223.812 81.3893 222.825 82.6021 222.825H159.587C160.8 222.825 161.786 223.812 161.786 225.026C161.786 226.239 160.8 227.226 159.587 227.226Z" fill="#E6E6E6"/>
<path d="M111.07 201.37H82.4757C81.2629 201.37 80.2761 200.382 80.2761 199.169C80.2761 197.956 81.2629 196.968 82.4757 196.968H111.07C112.283 196.968 113.27 197.956 113.27 199.169C113.27 200.382 112.283 201.37 111.07 201.37Z" fill="#E6E6E6"/>
<path d="M90.2406 179.351L85.7151 177.206C87.5713 179.798 89.1707 183.845 90.027 187.066C91.4768 184.066 93.8139 180.395 96.1273 178.202L91.3443 179.433C94.2916 164.982 105.377 154.607 118.071 154.607V153.507C104.812 153.507 93.2499 164.316 90.2406 179.351Z" fill="#3F3D56"/>
<path d="M290.349 63H133.102C127.334 63 122.644 67.6927 122.644 73.4637V181.27C122.644 187.041 127.334 191.733 133.102 191.733H290.349C296.117 191.733 300.808 187.041 300.808 181.27V73.4637C300.808 67.6927 296.117 63 290.349 63Z" fill="white"/>
<path d="M211.003 127.1C220.721 127.1 228.599 119.218 228.599 109.496C228.599 99.773 220.721 91.8912 211.003 91.8912C201.284 91.8912 193.406 99.773 193.406 109.496C193.406 119.218 201.284 127.1 211.003 127.1Z" fill="#1BAC4B"/>
<path d="M214.341 101.64C212.163 101.73 209.711 101.868 208.063 103.489C206.698 104.833 206.221 106.924 207.475 108.506C208.795 110.171 210.991 110.487 212.715 111.551C213.786 112.212 214.496 113.214 214.519 114.502C214.541 115.708 213.985 116.834 213.055 117.59C210.774 119.444 207.664 118.676 205.506 117.055C205.081 116.736 204.669 117.452 205.089 117.767C206.877 119.11 209.178 119.89 211.401 119.312C213.448 118.78 215.097 117.169 215.319 115.017C215.553 112.748 214.064 111.203 212.133 110.317C210.368 109.506 207.272 108.643 207.564 106.126C207.935 102.926 211.851 102.568 214.341 102.465C214.87 102.443 214.872 101.618 214.341 101.64V101.64Z" fill="white"/>
<path d="M210.556 100.143L210.457 122.786C210.454 123.317 211.279 123.318 211.282 122.786L211.381 100.143C211.383 99.6122 210.558 99.6116 210.556 100.143Z" fill="white"/>
<path d="M290.349 63H133.102C127.334 63 122.644 67.6927 122.644 73.4637V181.27C122.644 187.041 127.334 191.733 133.102 191.733H290.349C296.117 191.733 300.808 187.041 300.808 181.27V73.4637C300.808 67.6927 296.117 63 290.349 63ZM299.708 181.27C299.708 186.435 295.513 190.633 290.349 190.633H133.102C127.939 190.633 123.743 186.435 123.743 181.27V73.4637C123.743 68.2979 127.939 64.1003 133.102 64.1003H290.349C295.513 64.1003 299.708 68.2979 299.708 73.4637V181.27Z" fill="#3F3D56"/>
<path d="M270.735 137.003H152.717C147.807 137.003 143.814 140.997 143.814 145.91V153.953C143.814 158.866 147.807 162.86 152.717 162.86H270.735C275.645 162.86 279.637 158.866 279.637 153.953V145.91C279.637 140.997 275.645 137.003 270.735 137.003Z" fill="#1BAC4B"/>
<path d="M301.288 194.202L301 216.67L295.412 236.698L290.945 235.031L292.929 216.673L292.668 191.83L301.288 194.202Z" fill="#FFB6B6"/>
<path d="M295.393 239.927C295.917 237.047 294.956 234.46 293.247 234.149C291.538 233.838 289.728 235.92 289.203 238.8C288.679 241.68 289.64 244.267 291.349 244.578C293.058 244.89 294.869 242.807 295.393 239.927Z" fill="#FFB6B6"/>
<path d="M294.508 167.451C294.508 167.451 304.08 167.583 304.072 172.67C304.067 175.542 303.451 201.62 301.735 217.462C300.412 229.679 297.885 232.866 297.885 232.866L291.837 219.113L294.508 167.451Z" fill="#E6E6E6"/>
<path d="M294.262 213.353H261.935C264.644 207.304 266.31 201.543 263.706 196.961L294.262 195.189C292.735 201.375 292.548 207.446 294.262 213.353Z" fill="#FFB6B6"/>
<path d="M290.276 159.746L277.434 158.86L272.12 165.505L269.426 165.995C265.388 166.73 262.512 170.335 262.692 174.438L263.74 198.266L294.435 200.505L301.79 169.476L292.933 165.948L290.276 159.746V159.746Z" fill="#E6E6E6"/>
<path d="M211.96 166.934C212.871 167.754 213.521 168.712 213.865 169.641L223.038 176.904L219.455 181.17L210.536 173.343C209.576 173.099 208.556 172.553 207.644 171.733C205.563 169.859 204.842 167.266 206.033 165.941C207.225 164.616 209.878 165.061 211.959 166.934L211.96 166.934Z" fill="#FFB6B6"/>
<path d="M276.812 173.049V173.049L241.665 196.793L216.471 179.252L220.253 172.397L240.082 183.926L258.369 169.879C264.881 163.759 273.042 164.945 276.812 173.049H276.812Z" fill="#E6E6E6"/>
<path d="M283.093 156.87C288.355 156.87 292.621 152.602 292.621 147.338C292.621 142.074 288.355 137.806 283.093 137.806C277.831 137.806 273.566 142.074 273.566 147.338C273.566 152.602 277.831 156.87 283.093 156.87Z" fill="#FFB6B6"/>
<path d="M296.043 144.996V146.845L285.298 143.819L277.242 145.508C277.149 144.281 276.786 143.076 276.181 142.009C276.602 143.721 276.649 145.045 276.203 145.728L275.12 145.954C274.944 145.475 274.603 145.057 274.158 144.804C274.114 144.776 274.059 144.754 274.009 144.771C273.932 144.798 273.927 144.897 273.927 144.974C273.938 145.381 273.949 145.789 273.965 146.196L270.853 146.845V144.996C267.867 138.275 275.737 132.458 283.451 132.398C286.931 132.371 290.077 133.807 292.359 136.084C294.635 138.367 296.043 141.514 296.043 144.996Z" fill="#2F2E41"/>
<path d="M302.088 166.671L301.277 166.604C301.334 166.338 301.392 166.076 301.445 165.811C301.895 163.583 300.905 160.747 300.832 158.607C300.45 160.868 301.103 163.65 300.427 165.797C300.352 166.036 297.416 167.576 297.336 167.811C294.086 166.622 290.702 162.823 286.87 165.042C284.604 166.354 282.018 165.779 279.445 165.178C278.808 165.029 278.72 161.883 278.089 161.759C276.961 161.538 275.303 164.398 274.24 164.51L278.639 147.456C278.639 138.178 277.78 128.444 289.527 131.725C292.482 132.55 295.406 133.196 297.586 135.636C299.767 138.079 301.319 141.493 301.869 145.381C302.201 147.726 304.271 155.69 302.088 166.671Z" fill="#2F2E41"/>
<path d="M294.502 338.171L289.258 338.294L286.335 314.724L294.074 314.541L294.502 338.171Z" fill="#FFB7B7"/>
<path d="M276.511 349.116C276.511 350.003 277.139 350.721 277.915 350.721H288.324C288.324 350.721 289.348 346.602 293.524 344.829L293.813 350.721H299.182L298.532 341.247C298.532 341.247 299.968 336.178 296.985 333.587C294.002 330.996 296.418 331.356 296.418 331.356L295.245 325.492L287.13 326.447L287.071 335.652L283.133 344.789L277.357 347.643C276.843 347.897 276.511 348.476 276.511 349.116H276.51H276.511Z" fill="#2F2E41"/>
<path d="M278.548 334.33L273.507 335.781L264.701 313.724L272.14 311.582L278.548 334.33Z" fill="#FFB7B7"/>
<path d="M263.921 349.485C264.146 350.342 264.936 350.877 265.687 350.68L275.755 348.038C275.755 348.038 275.701 343.793 279.291 341.018L281.064 346.644L286.258 345.281L283.226 336.282C283.226 336.282 283.329 331.014 279.787 329.265C276.244 327.516 278.673 327.252 278.673 327.252L276.05 321.878L268.444 324.861L270.721 333.78L269.229 343.618L264.367 347.845C263.934 348.221 263.759 348.865 263.921 349.485L263.921 349.485L263.921 349.485Z" fill="#2F2E41"/>
<path d="M291.287 211.961L294.586 213.061C299.744 222.593 301.932 235.25 301.642 250.514L295.781 319.068H286.193L279.176 242.696L266.804 271.361L275.856 319.068L266.804 319.991L248.571 270.384L261.269 212.728L291.287 211.961Z" fill="#2F2E41"/>
<path d="M193.596 73.6453H178.166C177.391 73.6453 176.758 74.2779 176.758 75.0536C176.758 75.8348 177.391 76.4675 178.166 76.4675H193.596C194.371 76.4675 195.004 75.8348 195.004 75.0536C195.004 74.2779 194.371 73.6453 193.596 73.6453Z" fill="#E6E6E6"/>
<path d="M219.441 73.6453H204.011C203.235 73.6453 202.603 74.2779 202.603 75.0536C202.603 75.8348 203.235 76.4675 204.011 76.4675H219.441C220.216 76.4675 220.848 75.8348 220.848 75.0536C220.848 74.2779 220.216 73.6453 219.441 73.6453Z" fill="#E6E6E6"/>
<path d="M245.286 73.6453H229.856C229.08 73.6453 228.448 74.2779 228.448 75.0536C228.448 75.8348 229.08 76.4675 229.856 76.4675H245.286C246.061 76.4675 246.693 75.8348 246.693 75.0536C246.693 74.2779 246.061 73.6453 245.286 73.6453Z" fill="#E6E6E6"/>
</g>
<circle cx="232" cy="12" r="6" fill="url(#paint8_linear_75_2876)" fill-opacity="0.12"/>
<circle cx="65" cy="18" r="18" fill="url(#paint9_linear_75_2876)" fill-opacity="0.12"/>
<defs>
<linearGradient id="paint0_linear_75_2876" x1="117" y1="449" x2="93.2018" y2="442.1" gradientUnits="userSpaceOnUse">
<stop stop-color="#1BAC4B"/>
<stop offset="1" stop-color="#46D375"/>
</linearGradient>
<linearGradient id="paint1_linear_75_2876" x1="325" y1="452" x2="277.404" y2="438.2" gradientUnits="userSpaceOnUse">
<stop stop-color="#1BAC4B"/>
<stop offset="1" stop-color="#46D375"/>
</linearGradient>
<linearGradient id="paint2_linear_75_2876" x1="212" y1="426" x2="195.341" y2="421.17" gradientUnits="userSpaceOnUse">
<stop stop-color="#1BAC4B"/>
<stop offset="1" stop-color="#46D375"/>
</linearGradient>
<linearGradient id="paint3_linear_75_2876" x1="20" y1="380" x2="10.4807" y2="377.24" gradientUnits="userSpaceOnUse">
<stop stop-color="#1BAC4B"/>
<stop offset="1" stop-color="#46D375"/>
</linearGradient>
<linearGradient id="paint4_linear_75_2876" x1="367" y1="173" x2="355.101" y2="169.55" gradientUnits="userSpaceOnUse">
<stop stop-color="#1BAC4B"/>
<stop offset="1" stop-color="#46D375"/>
</linearGradient>
<linearGradient id="paint5_linear_75_2876" x1="12" y1="163" x2="-2.27892" y2="158.86" gradientUnits="userSpaceOnUse">
<stop stop-color="#1BAC4B"/>
<stop offset="1" stop-color="#46D375"/>
</linearGradient>
<linearGradient id="paint6_linear_75_2876" x1="61" y1="103" x2="53.8605" y2="100.93" gradientUnits="userSpaceOnUse">
<stop stop-color="#1BAC4B"/>
<stop offset="1" stop-color="#46D375"/>
</linearGradient>
<linearGradient id="paint7_linear_75_2876" x1="364" y1="83" x2="330.683" y2="73.3399" gradientUnits="userSpaceOnUse">
<stop stop-color="#1BAC4B"/>
<stop offset="1" stop-color="#46D375"/>
</linearGradient>
<linearGradient id="paint8_linear_75_2876" x1="238" y1="18" x2="223.721" y2="13.86" gradientUnits="userSpaceOnUse">
<stop stop-color="#1BAC4B"/>
<stop offset="1" stop-color="#46D375"/>
</linearGradient>
<linearGradient id="paint9_linear_75_2876" x1="83" y1="36" x2="40.1632" y2="23.5799" gradientUnits="userSpaceOnUse">
<stop stop-color="#1BAC4B"/>
<stop offset="1" stop-color="#46D375"/>
</linearGradient>
<clipPath id="clip0_75_2876">
<rect width="300" height="288" fill="white" transform="translate(50 63)"/>
</clipPath>
</defs>
</svg>
