<svg width="367" height="478" viewBox="0 0 367 478" fill="none" xmlns="http://www.w3.org/2000/svg">
<circle cx="251" cy="447" r="9" fill="url(#paint0_linear_75_2820)" fill-opacity="0.12"/>
<circle cx="91" cy="458" r="20" fill="url(#paint1_linear_75_2820)" fill-opacity="0.12"/>
<circle cx="341" cy="407" r="10" fill="url(#paint2_linear_75_2820)" fill-opacity="0.12"/>
<circle cx="34" cy="374" r="3" fill="url(#paint3_linear_75_2820)" fill-opacity="0.12"/>
<circle cx="362" cy="187" r="5" fill="url(#paint4_linear_75_2820)" fill-opacity="0.12"/>
<circle cx="6" cy="176" r="6" fill="url(#paint5_linear_75_2820)" fill-opacity="0.12"/>
<circle cx="58" cy="119" r="3" fill="url(#paint6_linear_75_2820)" fill-opacity="0.12"/>
<circle cx="350" cy="88" r="14" fill="url(#paint7_linear_75_2820)" fill-opacity="0.12"/>
<path d="M305.978 268.017C288.867 268.017 274.924 280.467 274.247 296.059H337.709C337.032 280.467 323.088 268.017 305.978 268.017Z" fill="#3F3D56"/>
<path d="M150.713 259.864H74.9692L74.1662 236.553C74.1315 235.542 74.3159 234.536 74.7068 233.604C75.0977 232.672 75.6858 231.835 76.4306 231.152C77.1754 230.469 78.0592 229.956 79.0212 229.647C79.9832 229.339 81.0006 229.243 82.0032 229.366L126.081 234.768H126.086C132.621 234.786 138.882 237.396 143.498 242.025C148.114 246.655 150.708 252.928 150.713 259.469V259.864Z" fill="#1BAC4B"/>
<path d="M254.88 208.378L228.839 220.227L232.258 233.111C238.86 257.991 240.612 283.912 237.418 309.456L256.459 313.437L272.242 273.151L266.718 227.336L254.88 208.378Z" fill="#1BAC4B"/>
<path d="M116.954 177.176H64.1264C63.4239 177.176 62.7282 177.314 62.079 177.583C61.4299 177.852 60.8401 178.247 60.3433 178.744C59.8465 179.241 59.4525 179.832 59.1837 180.481C58.9149 181.131 58.7767 181.828 58.7769 182.531V235.41C58.7767 236.113 58.9149 236.809 59.1837 237.459C59.4525 238.109 59.8465 238.699 60.3433 239.196C60.8401 239.694 61.4299 240.088 62.079 240.357C62.7282 240.626 63.4239 240.765 64.1264 240.764H116.954C117.656 240.765 118.352 240.626 119.001 240.357C119.65 240.088 120.24 239.694 120.737 239.196C121.234 238.699 121.628 238.109 121.897 237.459C122.165 236.809 122.304 236.113 122.303 235.41V182.531C122.304 181.828 122.165 181.131 121.897 180.481C121.628 179.832 121.234 179.241 120.737 178.744C120.24 178.247 119.65 177.852 119.001 177.583C118.352 177.314 117.656 177.176 116.954 177.176Z" fill="#CCCCCC"/>
<path d="M105.057 216.717L80.1145 221.579C78.635 221.865 77.1023 221.553 75.8527 220.71C74.6031 219.867 73.7386 218.562 73.4489 217.081L71.5316 207.226C71.2452 205.745 71.5574 204.211 72.3996 202.96C73.2419 201.71 74.5454 200.844 76.0243 200.554L100.966 195.692C102.446 195.406 103.979 195.718 105.228 196.561C106.478 197.404 107.342 198.709 107.632 200.189L109.549 210.045C109.836 211.525 109.523 213.06 108.681 214.31C107.839 215.561 106.535 216.427 105.057 216.717Z" fill="#3F3D56"/>
<path d="M100.066 205.074L81.0311 208.784C80.6829 208.852 80.3221 208.779 80.0279 208.58C79.7338 208.382 79.5305 208.075 79.4627 207.726C79.3949 207.378 79.4681 207.016 79.6664 206.722C79.8646 206.428 80.1716 206.224 80.5198 206.156L99.5545 202.446C99.9027 202.378 100.264 202.451 100.558 202.65C100.852 202.848 101.055 203.155 101.123 203.504C101.191 203.852 101.117 204.214 100.919 204.508C100.721 204.802 100.414 205.006 100.066 205.074Z" fill="white"/>
<path d="M96.366 210.569L86.5204 212.488C86.1723 212.556 85.8114 212.482 85.5173 212.284C85.2232 212.085 85.0198 211.778 84.952 211.43C84.8842 211.081 84.9575 210.72 85.1558 210.425C85.354 210.131 85.661 209.927 86.0092 209.86L95.8547 207.94C96.0271 207.907 96.2044 207.908 96.3765 207.943C96.5486 207.978 96.7122 208.046 96.8578 208.144C97.0035 208.243 97.1284 208.369 97.2253 208.515C97.3223 208.662 97.3895 208.826 97.4231 208.999C97.4567 209.171 97.4559 209.349 97.421 209.521C97.386 209.693 97.3175 209.857 97.2194 210.003C97.1212 210.148 96.9953 210.273 96.8489 210.371C96.7025 210.468 96.5384 210.535 96.366 210.569Z" fill="white"/>
<path d="M292.659 270.704C291.768 200.323 251.724 206.798 251.724 206.798C251.724 206.798 252.473 228.705 252.833 229.386C278.351 277.713 236.237 334.369 182.63 323.946C181.62 323.75 180.649 323.551 179.717 323.348C172.925 321.929 166.928 317.973 162.946 312.285C158.964 306.597 157.296 299.604 158.281 292.729C163.562 250.282 137.297 251.033 137.297 251.033H98.8924L78.9479 233.066C78.2439 232.432 77.3954 231.98 76.4766 231.75C75.5578 231.52 74.5967 231.518 73.6773 231.746C72.7578 231.974 71.9081 232.423 71.2024 233.056C70.4968 233.688 69.9566 234.484 69.6291 235.373L67.0632 242.344C67.0632 242.344 29.1841 246.294 32.3407 283.42H44.0515C44.0233 284.475 44.0655 285.53 44.1779 286.58L131.577 285.868C136.7 285.827 141.222 289.982 141.243 295.11C141.248 296.359 141.002 297.595 140.519 298.746C140.036 299.897 139.325 300.939 138.431 301.809C137.536 302.679 136.475 303.359 135.312 303.809C134.148 304.259 132.906 304.47 131.659 304.428L117.569 303.958C113.229 323.311 123.882 336.344 135.621 344.54C146.673 352.144 159.787 356.176 173.198 356.092H211.478C261.194 356.092 269.875 314.227 269.875 314.227C295.917 303.168 292.659 270.704 292.659 270.704Z" fill="#3F3D56"/>
<path d="M303.61 379C328.126 379 348 359.107 348 334.567C348 310.028 328.126 290.134 303.61 290.134C279.095 290.134 259.221 310.028 259.221 334.567C259.221 359.107 279.095 379 303.61 379Z" fill="#3F3D56"/>
<path d="M303.61 345.457C309.619 345.457 314.49 340.582 314.49 334.567C314.49 328.552 309.619 323.677 303.61 323.677C297.601 323.677 292.73 328.552 292.73 334.567C292.73 340.582 297.601 345.457 303.61 345.457Z" fill="white"/>
<path d="M79.4919 379C107.712 379 130.589 356.101 130.589 327.853C130.589 299.605 107.712 276.706 79.4919 276.706C51.2716 276.706 28.3945 299.605 28.3945 327.853C28.3945 356.101 51.2716 379 79.4919 379Z" fill="#3F3D56"/>
<path d="M79.492 340.389C86.4088 340.389 92.0159 334.776 92.0159 327.853C92.0159 320.929 86.4088 315.317 79.492 315.317C72.5753 315.317 66.9681 320.929 66.9681 327.853C66.9681 334.776 72.5753 340.389 79.492 340.389Z" fill="white"/>
<path d="M185.089 322.66H194.764L199.367 297.543L185.088 297.544L185.089 322.66Z" fill="#FFB8B8"/>
<path d="M182.621 319.498L201.674 319.497H201.675C203.269 319.497 204.848 319.812 206.321 320.422C207.795 321.033 209.133 321.928 210.261 323.057C211.388 324.186 212.282 325.526 212.893 327C213.503 328.475 213.817 330.055 213.817 331.651V332.046L182.621 332.047L182.621 319.498Z" fill="#2F2E41"/>
<path d="M39.0481 288.554C45.1498 288.554 50.0962 282.542 50.0962 275.126C50.0962 267.709 45.1498 261.697 39.0481 261.697C32.9464 261.697 28 267.709 28 275.126C28 282.542 32.9464 288.554 39.0481 288.554Z" fill="#1BAC4B"/>
<path d="M122.303 182.531V189.559H58.7769V182.531C58.7767 181.828 58.9149 181.131 59.1837 180.481C59.4525 179.832 59.8465 179.241 60.3433 178.744C60.8401 178.247 61.4299 177.852 62.079 177.583C62.7282 177.314 63.4239 177.176 64.1264 177.176H116.954C117.656 177.176 118.352 177.314 119.001 177.583C119.65 177.852 120.24 178.247 120.737 178.744C121.234 179.241 121.628 179.832 121.897 180.481C122.165 181.131 122.304 181.828 122.303 182.531Z" fill="#B3B3B3"/>
<path d="M249.159 191.76C248.793 190.575 248.171 189.485 247.338 188.566C246.504 187.648 245.48 186.924 244.337 186.444C243.194 185.965 241.96 185.742 240.721 185.792C239.483 185.842 238.271 186.163 237.17 186.732L164.492 160.631L161.291 178.805L233.737 198.747C234.816 200.535 236.512 201.865 238.505 202.485C240.497 203.105 242.648 202.971 244.549 202.11C246.45 201.249 247.969 199.72 248.819 197.812C249.669 195.904 249.79 193.751 249.159 191.76Z" fill="#FFB8B8"/>
<path opacity="0.2" d="M249.159 191.76C248.793 190.575 248.171 189.485 247.338 188.566C246.504 187.648 245.48 186.924 244.337 186.444C243.194 185.965 241.96 185.742 240.721 185.792C239.483 185.842 238.271 186.163 237.17 186.732L164.492 160.631L161.291 178.805L233.737 198.747C234.816 200.535 236.512 201.865 238.505 202.485C240.497 203.105 242.648 202.971 244.549 202.11C246.45 201.249 247.969 199.72 248.819 197.812C249.669 195.904 249.79 193.751 249.159 191.76Z" fill="black"/>
<path d="M228.913 223.727L219.543 198.253C219.055 196.925 218.832 195.514 218.889 194.101C218.945 192.687 219.279 191.298 219.872 190.014C220.464 188.73 221.304 187.575 222.343 186.615C223.381 185.655 224.598 184.91 225.925 184.421L252.787 174.522C255.121 173.662 257.601 173.27 260.086 173.37C262.571 173.469 265.012 174.057 267.27 175.101C269.528 176.144 271.559 177.623 273.246 179.452C274.933 181.281 276.243 183.424 277.103 185.761C277.877 187.857 278.273 190.075 278.271 192.311C278.261 195.15 277.619 197.95 276.393 200.509C275.166 203.069 273.385 205.322 271.179 207.106C269.585 208.386 267.794 209.397 265.875 210.099L228.913 223.727Z" fill="#3F3D56"/>
<path d="M196.319 312.351C196.206 312.351 196.093 312.346 195.979 312.335L182.59 311.359C182.049 311.309 181.526 311.135 181.062 310.85C180.599 310.566 180.206 310.178 179.916 309.718C179.626 309.258 179.445 308.737 179.387 308.196C179.329 307.655 179.397 307.107 179.584 306.596L197.503 266.299C197.631 265.94 197.683 265.558 197.656 265.177C197.63 264.797 197.525 264.426 197.348 264.088C197.171 263.746 196.925 263.446 196.624 263.206C196.323 262.967 195.975 262.793 195.603 262.698C187.177 260.493 165.558 254.623 146.844 247.754C138.827 244.812 133.777 240.559 131.836 235.114C129.276 227.936 133.062 221.39 133.225 221.116L133.352 220.9L150.962 222.503L170.052 224.128L211.887 246.584C215.393 248.481 218.056 251.631 219.345 255.405C220.635 259.18 220.457 263.302 218.847 266.951L199.559 310.244C199.28 310.871 198.826 311.404 198.25 311.778C197.675 312.152 197.004 312.351 196.319 312.351Z" fill="#2F2E41"/>
<path d="M179.565 325.03H189.24L193.843 299.913L179.564 299.913L179.565 325.03Z" fill="#FFB8B8"/>
<path d="M177.097 321.868L196.15 321.867H196.151C197.745 321.867 199.324 322.181 200.797 322.792C202.27 323.403 203.609 324.298 204.737 325.427C205.864 326.555 206.758 327.895 207.369 329.37C207.979 330.844 208.293 332.425 208.293 334.021V334.416L177.097 334.417L177.097 321.868Z" fill="#2F2E41"/>
<path d="M190.795 314.721C190.682 314.721 190.569 314.715 190.455 314.705L177.066 313.729C176.525 313.679 176.002 313.504 175.538 313.22C175.075 312.935 174.682 312.548 174.392 312.088C174.102 311.628 173.92 311.107 173.863 310.566C173.805 310.025 173.873 309.477 174.06 308.966L191.979 268.669C192.107 268.31 192.159 267.928 192.132 267.547C192.106 267.167 192.001 266.796 191.824 266.458C191.647 266.116 191.401 265.816 191.1 265.576C190.799 265.336 190.451 265.163 190.079 265.068C181.653 262.863 160.034 256.993 141.32 250.124C133.303 247.181 128.253 242.929 126.312 237.484C123.752 230.306 127.538 223.76 127.701 223.485L127.828 223.27L145.437 224.872L164.528 226.498L206.363 248.953C209.869 250.851 212.532 254 213.821 257.775C215.111 261.549 214.933 265.672 213.323 269.321L194.035 312.614C193.756 313.241 193.301 313.774 192.726 314.148C192.151 314.522 191.48 314.721 190.795 314.721Z" fill="#2F2E41"/>
<path d="M277.876 192.311C277.874 195.092 277.249 197.837 276.047 200.344C274.845 202.851 273.097 205.056 270.932 206.798C267.609 205.921 264.517 204.33 261.871 202.135C259.224 199.941 257.087 197.196 255.608 194.091C254.128 190.987 253.342 187.597 253.304 184.157C253.265 180.718 253.976 177.311 255.386 174.174C258.092 173.585 260.897 173.61 263.592 174.248C266.288 174.885 268.807 176.119 270.964 177.859C273.121 179.598 274.862 181.799 276.058 184.3C277.254 186.801 277.875 189.538 277.876 192.311Z" fill="#1BAC4B"/>
<path d="M177.392 163.943L170.529 181.89C170.334 182.401 170.031 182.863 169.641 183.246C169.251 183.629 168.783 183.923 168.269 184.109C167.756 184.294 167.208 184.367 166.663 184.321C166.119 184.276 165.591 184.114 165.115 183.846L148.435 174.449C145.831 173.433 143.735 171.426 142.607 168.867C141.479 166.308 141.411 163.405 142.418 160.795C143.424 158.186 145.424 156.082 147.977 154.946C150.531 153.81 153.431 153.733 156.041 154.733L174.666 158.868C175.2 158.987 175.701 159.219 176.136 159.549C176.572 159.879 176.931 160.299 177.19 160.781C177.449 161.262 177.601 161.794 177.636 162.34C177.67 162.885 177.587 163.432 177.392 163.943Z" fill="#1BAC4B"/>
<path d="M160.001 153.778L139.484 146.669C139.484 146.669 126.603 156.575 132.791 181.148C136.021 193.828 135.08 207.214 130.108 219.317C129.509 220.814 128.819 222.273 128.041 223.686C128.041 223.686 150.926 251.333 172.233 230.795L163.947 190.904C163.947 190.904 176.968 164.442 160.001 153.778Z" fill="#1BAC4B"/>
<path d="M248.195 190.97C247.685 189.839 246.934 188.834 245.994 188.025C245.054 187.217 243.948 186.625 242.755 186.29C241.561 185.956 240.309 185.887 239.086 186.089C237.863 186.292 236.7 186.76 235.677 187.461L160.337 170.535L159.401 188.966L233.752 199.808C235.043 201.449 236.89 202.559 238.944 202.928C240.998 203.297 243.115 202.9 244.895 201.81C246.676 200.721 247.995 199.015 248.603 197.017C249.211 195.02 249.066 192.868 248.195 190.97Z" fill="#FFB8B8"/>
<path d="M239.492 205.613C242.543 205.613 245.016 203.137 245.016 200.084C245.016 197.03 242.543 194.554 239.492 194.554C236.441 194.554 233.968 197.03 233.968 200.084C233.968 203.137 236.441 205.613 239.492 205.613Z" fill="#1BAC4B"/>
<path d="M173.547 172.229L168.948 190.886C168.818 191.417 168.574 191.914 168.234 192.342C167.894 192.77 167.466 193.12 166.979 193.367C166.492 193.615 165.958 193.754 165.412 193.777C164.866 193.799 164.322 193.703 163.817 193.496L146.106 186.23C143.395 185.546 141.066 183.814 139.629 181.413C138.193 179.011 137.767 176.138 138.444 173.423C139.122 170.708 140.848 168.372 143.244 166.929C145.639 165.487 148.509 165.054 151.223 165.726L170.216 167.53C170.76 167.581 171.286 167.75 171.759 168.024C172.232 168.297 172.64 168.67 172.956 169.116C173.272 169.562 173.489 170.071 173.591 170.608C173.693 171.145 173.678 171.698 173.547 172.229V172.229Z" fill="#1BAC4B"/>
<path d="M154.024 142.777C164.728 142.777 173.406 134.091 173.406 123.376C173.406 112.661 164.728 103.974 154.024 103.974C143.319 103.974 134.641 112.661 134.641 123.376C134.641 134.091 143.319 142.777 154.024 142.777Z" fill="#FFB8B8"/>
<path d="M156.43 143.437C153.672 139.304 151.494 133.573 154.532 129.64C157.53 125.758 163.443 126.33 168.034 124.613C174.43 122.22 178.139 114.7 176.982 107.964C175.825 101.229 170.424 95.6462 163.989 93.3617C157.555 91.0773 150.299 91.8202 143.998 94.4509C136.241 97.6893 129.587 103.954 126.797 111.889C124.007 119.825 125.498 129.353 131.287 135.452C137.492 141.991 147.232 143.734 156.242 143.628" fill="#2F2E41"/>
<path d="M138.401 108.181C134.925 111.013 129.621 109.755 125.89 107.269C122.158 104.783 119.131 101.244 115.093 99.2945C107.976 95.8584 99.3706 98.1426 92.4435 101.949C85.5165 105.755 79.3759 111.013 72.0588 114C64.7418 116.987 55.4047 117.134 49.8641 111.494C48.5007 115.449 48.3892 119.728 49.545 123.748C50.7007 127.768 53.0674 131.333 56.3221 133.957C59.5768 136.58 63.561 138.135 67.7311 138.409C71.9011 138.682 76.054 137.662 79.623 135.485C87.6403 130.597 92.0687 120.348 101.061 117.65C106.037 116.157 111.38 117.359 116.409 118.662C121.438 119.964 126.682 121.371 131.758 120.263C136.833 119.154 141.58 114.588 140.934 109.429L138.401 108.181Z" fill="#2F2E41"/>
<circle cx="174" cy="49" r="6" fill="url(#paint8_linear_75_2820)" fill-opacity="0.12"/>
<circle cx="282" cy="36" r="7" fill="url(#paint9_linear_75_2820)" fill-opacity="0.12"/>
<circle cx="55" cy="18" r="18" fill="url(#paint10_linear_75_2820)" fill-opacity="0.12"/>
<defs>
<linearGradient id="paint0_linear_75_2820" x1="260" y1="456" x2="238.582" y2="449.79" gradientUnits="userSpaceOnUse">
<stop stop-color="#1BAC4B"/>
<stop offset="1" stop-color="#46D375"/>
</linearGradient>
<linearGradient id="paint1_linear_75_2820" x1="111" y1="478" x2="63.4036" y2="464.2" gradientUnits="userSpaceOnUse">
<stop stop-color="#1BAC4B"/>
<stop offset="1" stop-color="#46D375"/>
</linearGradient>
<linearGradient id="paint2_linear_75_2820" x1="351" y1="417" x2="327.202" y2="410.1" gradientUnits="userSpaceOnUse">
<stop stop-color="#1BAC4B"/>
<stop offset="1" stop-color="#46D375"/>
</linearGradient>
<linearGradient id="paint3_linear_75_2820" x1="37" y1="377" x2="29.8605" y2="374.93" gradientUnits="userSpaceOnUse">
<stop stop-color="#1BAC4B"/>
<stop offset="1" stop-color="#46D375"/>
</linearGradient>
<linearGradient id="paint4_linear_75_2820" x1="367" y1="192" x2="355.101" y2="188.55" gradientUnits="userSpaceOnUse">
<stop stop-color="#1BAC4B"/>
<stop offset="1" stop-color="#46D375"/>
</linearGradient>
<linearGradient id="paint5_linear_75_2820" x1="12" y1="182" x2="-2.27892" y2="177.86" gradientUnits="userSpaceOnUse">
<stop stop-color="#1BAC4B"/>
<stop offset="1" stop-color="#46D375"/>
</linearGradient>
<linearGradient id="paint6_linear_75_2820" x1="61" y1="122" x2="53.8605" y2="119.93" gradientUnits="userSpaceOnUse">
<stop stop-color="#1BAC4B"/>
<stop offset="1" stop-color="#46D375"/>
</linearGradient>
<linearGradient id="paint7_linear_75_2820" x1="364" y1="102" x2="330.683" y2="92.3399" gradientUnits="userSpaceOnUse">
<stop stop-color="#1BAC4B"/>
<stop offset="1" stop-color="#46D375"/>
</linearGradient>
<linearGradient id="paint8_linear_75_2820" x1="180" y1="55" x2="165.721" y2="50.86" gradientUnits="userSpaceOnUse">
<stop stop-color="#1BAC4B"/>
<stop offset="1" stop-color="#46D375"/>
</linearGradient>
<linearGradient id="paint9_linear_75_2820" x1="289" y1="43" x2="272.341" y2="38.17" gradientUnits="userSpaceOnUse">
<stop stop-color="#1BAC4B"/>
<stop offset="1" stop-color="#46D375"/>
</linearGradient>
<linearGradient id="paint10_linear_75_2820" x1="73" y1="36" x2="30.1632" y2="23.5799" gradientUnits="userSpaceOnUse">
<stop stop-color="#1BAC4B"/>
<stop offset="1" stop-color="#46D375"/>
</linearGradient>
</defs>
</svg>
