<svg width="28" height="28" viewBox="0 0 28 28" fill="none" xmlns="http://www.w3.org/2000/svg">
<path d="M22.5457 11.0459C22.5457 11.0459 21.9122 18.9034 21.5447 22.2132C21.3697 23.7941 20.3932 24.7204 18.7937 24.7496C15.7498 24.8044 12.7025 24.8079 9.65984 24.7437C8.121 24.7122 7.16084 23.7742 6.98934 22.2214C6.6195 18.8824 5.9895 11.0459 5.9895 11.0459" stroke="#212121" stroke-width="1.5" stroke-linecap="round" stroke-linejoin="round"/>
<path d="M24.1596 7.27962H4.37524" stroke="#212121" stroke-width="1.5" stroke-linecap="round" stroke-linejoin="round"/>
<path d="M20.3474 7.27948C19.4316 7.27948 18.6429 6.63198 18.4633 5.73482L18.1798 4.31615C18.0048 3.66165 17.4121 3.20898 16.7366 3.20898H11.7981C11.1226 3.20898 10.5299 3.66165 10.3549 4.31615L10.0714 5.73482C9.89176 6.63198 9.10309 7.27948 8.18726 7.27948" stroke="#212121" stroke-width="1.5" stroke-linecap="round" stroke-linejoin="round"/>
</svg>
