<svg width="24" height="23" viewBox="0 0 24 23" fill="none" xmlns="http://www.w3.org/2000/svg">
<rect width="24" height="23" fill="#F5F5F5"/>
<g id="80_Light_profile" clip-path="url(#clip0_75_1056)">
<rect width="428" height="926" transform="translate(-26 -311)" fill="white"/>
<g id="Auto Layout Vertical">
<g id="Auto Layout Vertical_2">
<g id="Auto Layout Vertical_3">
<g id="Auto Layout Vertical_4">
<g id="Auto Layout Horizontal">
<g id="Iconly/Curved/Wallet">
<g id="Group">
<path id="Vector" d="M22.6997 14.1217H18.1653C16.5142 14.1217 15.1753 12.7828 15.1753 11.1306C15.1753 9.47951 16.5142 8.14062 18.1653 8.14062H22.6642" stroke="#212121" stroke-width="1.5" stroke-linecap="round" stroke-linejoin="round"/>
<path id="Line" d="M18.6757 11.0614H18.329" stroke="#212121" stroke-width="1.5" stroke-linecap="round" stroke-linejoin="round"/>
<path id="Line_2" d="M6.87402 6.50087H11.6107" stroke="#212121" stroke-width="1.5" stroke-linecap="round" stroke-linejoin="round"/>
<path id="Vector_2" fill-rule="evenodd" clip-rule="evenodd" d="M1.1665 11.2952C1.1665 3.82301 3.87873 1.33301 12.0176 1.33301C20.1554 1.33301 22.8676 3.82301 22.8676 11.2952C22.8676 18.7663 20.1554 21.2575 12.0176 21.2575C3.87873 21.2575 1.1665 18.7663 1.1665 11.2952Z" stroke="#212121" stroke-width="1.5" stroke-linecap="round" stroke-linejoin="round"/>
</g>
</g>
</g>
</g>
</g>
</g>
</g>
</g>
<defs>
<clipPath id="clip0_75_1056">
<rect width="428" height="926" fill="white" transform="translate(-26 -311)"/>
</clipPath>
</defs>
</svg>
